<svg width="1200" height="1200" viewBox="0 0 1200 1200" fill="none" xmlns="http://www.w3.org/2000/svg">
<rect width="1200" height="1200" fill="#FF65C5"/>
<circle cx="600" cy="600" r="500" fill="white"/>
<circle cx="600" cy="600" r="446" stroke="#FF65C5" stroke-width="8"/>
<path d="M550.17 502.51C548.275 484.934 546.652 523.992 550.17 529.851C553.688 535.709 589.026 581.602 517 640.188C523.068 644.41 526.399 646.204 532.163 648H643.046C657.038 644.485 659.006 642.248 662 638.236C611.822 620.399 552.065 520.086 550.17 502.51Z" fill="#FF65C5" stroke="#FF65C5"/>
<path d="M550.436 380.593C556.371 370.594 562.657 350.103 563.768 348C568.905 351.684 570.65 355.962 570.434 370.079C570.366 378.787 587.1 378.49 587.1 378.49C596.676 397.491 600.21 394.906 604.876 378.49C604.876 378.49 624.844 377.799 623.763 371.131C621.648 358.535 622.775 353.073 631.54 348L644.873 380.593C650.256 395.97 641.54 405.826 641.54 405.826C641.54 405.826 622.98 424.645 623.763 437.368C623.763 437.368 619.615 445.092 635.985 471.013C652.354 496.934 648.756 508.801 648.206 510.966C647.655 513.13 633.737 536.042 632.651 548.816C632.651 548.816 624.283 572.144 632.651 587.717C636.592 599.824 664.861 631.271 664 634C663.139 636.729 654.578 637.894 612.772 589.82C583.935 555.544 573.195 539.597 559.324 508.863C556.792 501.357 550.228 489.52 559.324 471.013C568.419 452.505 569.323 446.831 569.323 437.368C569.323 427.906 562.819 415.778 551.547 407.929L551.406 407.734C545.008 398.846 541.377 393.803 550.436 380.593Z" fill="#FF65C5" stroke="#FF65C5"/>
<path d="M391.84 827.32C389.013 827.32 386.293 826.893 383.68 826.04C381.12 825.24 379.04 823.88 377.44 821.96C375.84 820.04 375.04 817.453 375.04 814.2C375.04 810.733 375.707 807.347 377.04 804.04C378.373 800.733 380.16 797.667 382.4 794.84C384.64 791.96 387.147 789.48 389.92 787.4C392.373 785.533 395.2 784.013 398.4 782.84C401.653 781.667 404.88 781.08 408.08 781.08C409.413 781.08 410.667 781.187 411.84 781.4C413.013 781.56 414.213 781.933 415.44 782.52C416.507 783 417.36 783.613 418 784.36C418.64 785.053 418.96 785.853 418.96 786.76C418.96 786.867 418.96 787 418.96 787.16C418.96 787.32 418.933 787.453 418.88 787.56C418.667 788.413 418.16 789.4 417.36 790.52C416.613 791.587 416.027 792.707 415.6 793.88C415.547 794.093 415.253 794.28 414.72 794.44C414.187 794.547 413.973 794.493 414.08 794.28C414.507 793.587 414.827 792.733 415.04 791.72C415.307 790.707 415.44 789.693 415.44 788.68C415.44 787.933 415.36 787.24 415.2 786.6C415.093 785.907 414.88 785.32 414.56 784.84C414.027 783.88 413.2 783.213 412.08 782.84C410.96 782.467 409.76 782.28 408.48 782.28C407.253 782.28 406.027 782.413 404.8 782.68C403.573 782.947 402.507 783.24 401.6 783.56C398.507 784.68 395.547 786.44 392.72 788.84C390.213 791.027 387.973 793.56 386 796.44C384.08 799.32 382.56 802.28 381.44 805.32C380.32 808.36 379.76 811.267 379.76 814.04C379.76 816.867 380.373 819.107 381.6 820.76C382.827 822.413 384.427 823.587 386.4 824.28C388.373 824.973 390.507 825.32 392.8 825.32C394.827 825.32 396.827 825.107 398.8 824.68C400.827 824.253 402.667 823.72 404.32 823.08C407.147 822.013 409.68 820.707 411.92 819.16C414.213 817.613 416.347 815.613 418.32 813.16C418.587 812.893 418.773 812.76 418.88 812.76C419.04 812.76 419.12 812.867 419.12 813.08C419.12 813.507 418.907 814.013 418.48 814.6C416.667 817.053 414.613 819.107 412.32 820.76C410.027 822.413 407.573 823.773 404.96 824.84C403.2 825.533 401.147 826.12 398.8 826.6C396.507 827.08 394.187 827.32 391.84 827.32ZM418.188 825.16C417.334 825.16 416.561 825 415.868 824.68C415.228 824.307 414.908 823.533 414.908 822.36C414.908 820.493 415.388 818.627 416.348 816.76C417.308 814.84 418.294 813.16 419.308 811.72C420.214 810.493 421.228 809.347 422.348 808.28C423.521 807.16 424.774 806.2 426.108 805.4C426.961 804.867 428.108 804.307 429.548 803.72C431.041 803.08 432.294 802.76 433.308 802.76C434.161 802.76 434.908 803 435.548 803.48C436.188 803.907 436.508 804.707 436.508 805.88C436.508 807.693 436.028 809.56 435.068 811.48C434.161 813.347 433.201 815 432.188 816.44C431.708 817.08 431.228 817.693 430.748 818.28C430.268 818.813 429.734 819.373 429.148 819.96C431.121 819.96 432.934 819.4 434.588 818.28C436.241 817.107 437.681 815.693 438.908 814.04L439.068 813.88C439.228 813.88 439.308 814.04 439.308 814.36C439.308 814.733 439.201 815.08 438.988 815.4C437.921 816.893 436.588 818.227 434.988 819.4C433.388 820.52 431.574 821.08 429.548 821.08C429.334 821.08 429.121 821.08 428.908 821.08C428.694 821.08 428.481 821.053 428.268 821C425.281 823.773 421.921 825.16 418.188 825.16ZM420.268 823.8C421.014 823.8 421.814 823.533 422.668 823C423.574 822.467 424.268 821.96 424.747 821.48C425.654 820.573 426.481 819.613 427.228 818.6C427.974 817.533 428.668 816.467 429.308 815.4C430.054 814.12 430.801 812.6 431.548 810.84C432.294 809.08 432.668 807.427 432.668 805.88C432.668 804.653 432.241 804.04 431.388 804.04C430.694 804.04 429.841 804.333 428.828 804.92C427.868 805.507 427.148 806.04 426.668 806.52C424.854 808.387 423.334 810.413 422.108 812.6C421.414 813.827 420.668 815.267 419.868 816.92C419.068 818.573 418.668 820.093 418.668 821.48C418.668 821.693 418.668 821.907 418.668 822.12C418.721 822.28 418.774 822.467 418.828 822.68C419.041 823.427 419.521 823.8 420.268 823.8ZM438.559 826.2C438.346 826.2 438.346 825.96 438.559 825.48C438.826 825 439.066 824.467 439.279 823.88C439.546 823.293 439.813 822.653 440.079 821.96C440.613 820.68 441.199 819.24 441.839 817.64C442.479 816.04 443.093 814.493 443.679 813C444.266 811.453 444.773 810.147 445.199 809.08C445.679 807.96 445.999 807.24 446.159 806.92C445.413 807.72 444.506 808.733 443.439 809.96C442.426 811.133 441.466 812.28 440.559 813.4C439.653 814.52 438.959 815.4 438.479 816.04C438.319 816.253 438.186 816.36 438.079 816.36C437.973 816.36 437.919 816.227 437.919 815.96C437.919 815.533 438.053 815.133 438.319 814.76C439.333 813.48 440.453 812.04 441.679 810.44C442.959 808.84 444.106 807.373 445.119 806.04C446.133 804.653 446.773 803.747 447.039 803.32C447.626 803.213 448.479 803.053 449.599 802.84C450.773 802.627 451.573 802.333 451.999 801.96C452.159 801.8 452.319 801.72 452.479 801.72C452.586 801.72 452.639 801.827 452.639 802.04C452.693 802.2 452.639 802.387 452.479 802.6C452.159 802.973 451.599 803.853 450.799 805.24C450.053 806.573 449.226 808.067 448.319 809.72C447.466 811.373 446.666 812.867 445.919 814.2C446.559 813.347 447.253 812.52 447.999 811.72C448.746 810.92 449.466 810.147 450.159 809.4C450.799 808.76 451.679 807.96 452.799 807C453.919 806.04 455.093 805.16 456.319 804.36C457.546 803.56 458.613 803.107 459.519 803C459.733 802.947 459.919 802.92 460.079 802.92C460.293 802.92 460.453 802.92 460.559 802.92C461.733 802.92 462.319 803.347 462.319 804.2C462.319 804.84 461.973 805.693 461.279 806.76C460.906 807.347 460.319 808.333 459.519 809.72C458.773 811.053 457.999 812.52 457.199 814.12C456.453 815.667 455.786 817.133 455.199 818.52C454.666 819.853 454.399 820.84 454.399 821.48C454.399 822.227 454.773 822.6 455.519 822.6C456.426 822.6 457.413 822.147 458.479 821.24C459.599 820.333 460.799 819.187 462.079 817.8C463.359 816.36 464.639 814.84 465.919 813.24C466.026 813.347 466.079 813.533 466.079 813.8C466.079 814.173 465.946 814.547 465.679 814.92C465.466 815.24 465.253 815.533 465.039 815.8C464.506 816.493 463.786 817.373 462.879 818.44C462.026 819.453 461.146 820.467 460.239 821.48C459.333 822.44 458.506 823.213 457.759 823.8C457.226 824.173 456.533 824.573 455.679 825C454.826 825.427 453.973 825.64 453.119 825.64C452.159 825.64 451.493 825.4 451.119 824.92C450.746 824.387 450.559 823.747 450.559 823C450.559 822.147 450.719 821.24 451.039 820.28C451.359 819.32 451.706 818.413 452.079 817.56C452.506 816.653 452.826 815.987 453.039 815.56C453.999 813.693 454.879 811.933 455.679 810.28C456.479 808.627 457.039 807.453 457.359 806.76C457.519 806.44 457.599 806.173 457.599 805.96C457.599 805.587 457.306 805.56 456.719 805.88C456.133 806.2 455.413 806.68 454.559 807.32C453.759 807.96 453.013 808.6 452.319 809.24C451.626 809.827 451.173 810.227 450.959 810.44C448.986 812.52 447.253 814.84 445.759 817.4C444.319 819.907 443.093 822.493 442.079 825.16C441.386 825.213 440.693 825.4 439.999 825.72C439.306 826.04 438.826 826.2 438.559 826.2ZM445.926 843.08C443.846 843.08 442.112 842.733 440.726 842.04C439.286 841.4 438.326 840.413 437.846 839.08C437.792 838.92 437.766 838.76 437.766 838.6C437.712 838.44 437.686 838.253 437.686 838.04C437.686 837.24 437.872 836.333 438.246 835.32C438.619 834.36 439.019 833.32 439.446 832.2C439.606 831.88 439.792 831.72 440.006 831.72C440.379 831.72 440.486 831.987 440.326 832.52C439.952 833.32 439.766 834.173 439.766 835.08C439.766 836.947 440.592 838.44 442.246 839.56C443.846 840.733 445.686 841.32 447.766 841.32C449.366 841.32 450.912 840.947 452.406 840.2C454.912 838.92 456.966 837.16 458.566 834.92C460.166 832.68 461.579 830.413 462.806 828.12C464.672 824.547 466.272 820.813 467.606 816.92C468.992 812.973 470.459 809.08 472.006 805.24H470.166C469.899 805.24 469.606 805.267 469.286 805.32C468.966 805.373 468.672 805.427 468.406 805.48L468.246 805.4C468.352 804.813 468.859 804.307 469.766 803.88C470.726 803.4 471.472 803.16 472.006 803.16H472.966C473.766 801.24 474.699 799.133 475.766 796.84C476.886 794.547 478.086 792.253 479.366 789.96C480.646 787.613 482.032 785.48 483.526 783.56C485.072 781.64 486.672 780.12 488.326 779C491.046 777.08 494.059 776.12 497.366 776.12C498.006 776.12 498.619 776.333 499.206 776.76C499.846 777.133 500.139 777.72 500.086 778.52L499.846 781.4C499.846 781.507 499.766 781.587 499.606 781.64C499.446 781.693 499.339 781.667 499.286 781.56C499.072 780.493 498.486 779.72 497.526 779.24C496.619 778.707 495.552 778.44 494.326 778.44C492.352 778.44 490.539 779.08 488.886 780.36C487.286 781.64 485.552 784.013 483.686 787.48C482.992 788.813 482.219 790.387 481.366 792.2C480.566 794.013 479.766 795.88 478.966 797.8C478.166 799.72 477.392 801.507 476.646 803.16H482.406C482.779 803.16 483.152 803.16 483.526 803.16C483.952 803.107 484.352 803.053 484.726 803C484.726 803.213 484.566 803.427 484.246 803.64C483.979 803.8 483.739 803.933 483.526 804.04C482.192 804.733 480.939 805.133 479.766 805.24C478.592 805.293 477.259 805.293 475.766 805.24C474.592 808.173 473.472 810.973 472.406 813.64C471.392 816.253 470.272 818.813 469.046 821.32C468.032 823.56 466.779 825.933 465.286 828.44C463.792 830.947 462.086 833.32 460.166 835.56C458.246 837.8 456.112 839.613 453.766 841C451.366 842.387 448.752 843.08 445.926 843.08ZM480.297 825.16C479.444 825.16 478.67 825 477.977 824.68C477.337 824.307 477.017 823.533 477.017 822.36C477.017 820.493 477.497 818.627 478.457 816.76C479.417 814.84 480.404 813.16 481.417 811.72C482.324 810.493 483.337 809.347 484.457 808.28C485.63 807.16 486.884 806.2 488.217 805.4C489.07 804.867 490.217 804.307 491.657 803.72C493.15 803.08 494.404 802.76 495.417 802.76C496.27 802.76 497.017 803 497.657 803.48C498.297 803.907 498.617 804.707 498.617 805.88C498.617 807.693 498.137 809.56 497.177 811.48C496.27 813.347 495.31 815 494.297 816.44C493.817 817.08 493.337 817.693 492.857 818.28C492.377 818.813 491.844 819.373 491.257 819.96C493.23 819.96 495.044 819.4 496.697 818.28C498.35 817.107 499.79 815.693 501.017 814.04L501.177 813.88C501.337 813.88 501.417 814.04 501.417 814.36C501.417 814.733 501.31 815.08 501.097 815.4C500.03 816.893 498.697 818.227 497.097 819.4C495.497 820.52 493.684 821.08 491.657 821.08C491.444 821.08 491.23 821.08 491.017 821.08C490.804 821.08 490.59 821.053 490.377 821C487.39 823.773 484.03 825.16 480.297 825.16ZM482.377 823.8C483.124 823.8 483.924 823.533 484.777 823C485.684 822.467 486.377 821.96 486.857 821.48C487.764 820.573 488.59 819.613 489.337 818.6C490.084 817.533 490.777 816.467 491.417 815.4C492.164 814.12 492.91 812.6 493.657 810.84C494.404 809.08 494.777 807.427 494.777 805.88C494.777 804.653 494.35 804.04 493.497 804.04C492.804 804.04 491.95 804.333 490.937 804.92C489.977 805.507 489.257 806.04 488.777 806.52C486.964 808.387 485.444 810.413 484.217 812.6C483.524 813.827 482.777 815.267 481.977 816.92C481.177 818.573 480.777 820.093 480.777 821.48C480.777 821.693 480.777 821.907 480.777 822.12C480.83 822.28 480.884 822.467 480.937 822.68C481.15 823.427 481.63 823.8 482.377 823.8ZM500.669 826.12C500.455 826.12 500.455 825.907 500.669 825.48C500.935 825 501.175 824.467 501.389 823.88C501.655 823.293 501.922 822.653 502.189 821.96C502.722 820.68 503.309 819.24 503.949 817.64C504.589 816.04 505.202 814.493 505.789 813C506.375 811.453 506.882 810.147 507.309 809.08C507.789 807.96 508.109 807.24 508.269 806.92C507.522 807.72 506.615 808.733 505.549 809.96C504.535 811.133 503.575 812.28 502.669 813.4C501.762 814.52 501.069 815.4 500.589 816.04C500.429 816.253 500.295 816.36 500.189 816.36C500.082 816.36 500.029 816.227 500.029 815.96C500.029 815.533 500.162 815.133 500.429 814.76C501.442 813.48 502.562 812.04 503.789 810.44C505.069 808.84 506.215 807.373 507.229 806.04C508.242 804.653 508.882 803.747 509.149 803.32C509.735 803.213 510.589 803.053 511.709 802.84C512.882 802.627 513.682 802.333 514.109 801.96C514.269 801.8 514.429 801.72 514.589 801.72C514.695 801.72 514.749 801.827 514.749 802.04C514.802 802.2 514.749 802.387 514.589 802.6C514.269 802.92 513.789 803.613 513.149 804.68C512.562 805.747 511.895 806.973 511.149 808.36C510.402 809.747 509.682 811.08 508.989 812.36C509.522 811.56 510.215 810.627 511.069 809.56C511.975 808.44 512.962 807.373 514.029 806.36C515.095 805.293 516.162 804.413 517.229 803.72C518.349 803.027 519.389 802.68 520.349 802.68C521.042 802.68 521.629 802.84 522.109 803.16C522.589 803.427 522.962 803.933 523.229 804.68C523.389 805.053 523.469 805.48 523.469 805.96C523.469 806.867 523.229 807.747 522.749 808.6C522.322 809.4 522.002 810.013 521.789 810.44C521.735 810.6 521.549 810.76 521.229 810.92C520.909 811.027 520.775 810.973 520.829 810.76C520.882 810.493 520.909 810.227 520.909 809.96C520.962 809.693 520.989 809.4 520.989 809.08C520.989 808.173 520.802 807.347 520.429 806.6C520.109 805.853 519.495 805.48 518.589 805.48C517.735 805.48 516.695 806.013 515.469 807.08C514.242 808.147 513.015 809.373 511.789 810.76C510.242 812.573 509.015 814.307 508.109 815.96C507.202 817.56 506.455 819.133 505.869 820.68C505.549 821.533 505.229 822.387 504.909 823.24C504.589 824.04 504.349 824.68 504.189 825.16C503.495 825.213 502.802 825.373 502.109 825.64C501.415 825.96 500.935 826.12 500.669 826.12ZM525.186 825.24C524.652 825.24 524.199 825.133 523.826 824.92C523.452 824.707 523.266 824.307 523.266 823.72C523.266 822.973 523.452 822.093 523.826 821.08C524.252 820.067 524.706 819.053 525.186 818.04C525.666 817.027 526.066 816.2 526.386 815.56C526.652 815.08 526.999 814.333 527.426 813.32C527.906 812.253 528.386 811.16 528.866 810.04C529.399 808.867 529.826 807.88 530.146 807.08C530.519 806.28 530.706 805.88 530.706 805.88C530.226 806.413 529.586 807.16 528.786 808.12C528.039 809.08 527.212 810.093 526.306 811.16C525.452 812.173 524.652 813.133 523.906 814.04C523.212 814.947 522.706 815.613 522.386 816.04C522.226 816.253 522.092 816.36 521.986 816.36C521.879 816.36 521.826 816.227 521.826 815.96C521.826 815.533 521.959 815.133 522.226 814.76C522.866 813.96 523.639 813 524.546 811.88C525.452 810.707 526.359 809.533 527.266 808.36C528.226 807.187 529.052 806.147 529.746 805.24C529.319 805.24 528.759 805.267 528.066 805.32C527.426 805.373 526.839 805.453 526.306 805.56C525.772 805.613 525.479 805.64 525.426 805.64C525.159 805.64 525.186 805.427 525.506 805C525.826 804.573 526.252 804.147 526.786 803.72C527.319 803.293 527.719 803.08 527.986 803.08C528.039 803.08 528.466 803.107 529.266 803.16C530.066 803.16 530.652 803.16 531.026 803.16C532.092 801.72 533.132 800.067 534.146 798.2C535.212 796.333 536.252 794.28 537.266 792.04C537.692 791.987 538.412 791.693 539.426 791.16C540.492 790.573 541.319 789.987 541.906 789.4C542.172 789.133 542.386 789 542.546 789C542.866 789 542.866 789.213 542.546 789.64C542.172 790.067 541.532 790.973 540.626 792.36C539.719 793.693 538.706 795.32 537.586 797.24C536.466 799.107 535.399 801.08 534.386 803.16H540.866C541.452 803.16 541.746 803.24 541.746 803.4C541.746 803.613 541.346 803.827 540.546 804.04C539.639 804.307 538.679 804.467 537.666 804.52C536.706 804.573 535.799 804.68 534.946 804.84C534.146 805 533.559 805.347 533.186 805.88C532.866 806.253 532.412 807.053 531.826 808.28C531.239 809.507 530.599 810.92 529.906 812.52C529.266 814.067 528.706 815.64 528.226 817.24C527.746 818.787 527.452 820.093 527.346 821.16V821.48C527.346 821.907 527.479 822.253 527.746 822.52C528.012 822.787 528.279 822.92 528.546 822.92C529.239 822.92 530.119 822.493 531.186 821.64C532.306 820.787 533.452 819.773 534.626 818.6C535.799 817.373 536.812 816.253 537.666 815.24C538.039 814.813 538.359 814.413 538.626 814.04C538.946 813.667 539.132 813.427 539.186 813.32C539.292 813.533 539.346 813.693 539.346 813.8C539.346 814.12 539.239 814.467 539.026 814.84C538.866 815.213 538.679 815.533 538.466 815.8C537.452 817.133 536.226 818.547 534.786 820.04C533.346 821.48 531.799 822.707 530.146 823.72C528.546 824.733 526.892 825.24 525.186 825.24ZM539.125 825.16C538.272 825.16 537.498 825 536.805 824.68C536.165 824.307 535.845 823.533 535.845 822.36C535.845 820.493 536.325 818.627 537.285 816.76C538.245 814.84 539.232 813.16 540.245 811.72C541.152 810.493 542.165 809.347 543.285 808.28C544.458 807.16 545.712 806.2 547.045 805.4C547.898 804.867 549.045 804.307 550.485 803.72C551.978 803.08 553.232 802.76 554.245 802.76C555.098 802.76 555.845 803 556.485 803.48C557.125 803.907 557.445 804.707 557.445 805.88C557.445 807.693 556.965 809.56 556.005 811.48C555.098 813.347 554.138 815 553.125 816.44C552.645 817.08 552.165 817.693 551.685 818.28C551.205 818.813 550.672 819.373 550.085 819.96C552.058 819.96 553.872 819.4 555.525 818.28C557.178 817.107 558.618 815.693 559.845 814.04L560.005 813.88C560.165 813.88 560.245 814.04 560.245 814.36C560.245 814.733 560.138 815.08 559.925 815.4C558.858 816.893 557.525 818.227 555.925 819.4C554.325 820.52 552.512 821.08 550.485 821.08C550.272 821.08 550.058 821.08 549.845 821.08C549.632 821.08 549.418 821.053 549.205 821C546.218 823.773 542.858 825.16 539.125 825.16ZM541.205 823.8C541.952 823.8 542.752 823.533 543.605 823C544.512 822.467 545.205 821.96 545.685 821.48C546.592 820.573 547.418 819.613 548.165 818.6C548.912 817.533 549.605 816.467 550.245 815.4C550.992 814.12 551.738 812.6 552.485 810.84C553.232 809.08 553.605 807.427 553.605 805.88C553.605 804.653 553.178 804.04 552.325 804.04C551.632 804.04 550.778 804.333 549.765 804.92C548.805 805.507 548.085 806.04 547.605 806.52C545.792 808.387 544.272 810.413 543.045 812.6C542.352 813.827 541.605 815.267 540.805 816.92C540.005 818.573 539.605 820.093 539.605 821.48C539.605 821.693 539.605 821.907 539.605 822.12C539.658 822.28 539.712 822.467 539.765 822.68C539.978 823.427 540.458 823.8 541.205 823.8ZM577.093 825.64C574.906 825.64 573.386 825.213 572.533 824.36C571.679 823.507 571.253 822.467 571.253 821.24C571.253 819.693 571.653 818.04 572.452 816.28C573.306 814.52 574.106 813.027 574.853 811.8C575.706 810.52 576.853 809.187 578.293 807.8C579.733 806.413 581.306 805.24 583.013 804.28C584.719 803.32 586.373 802.84 587.973 802.84C589.359 802.84 590.319 803.187 590.853 803.88C591.386 804.52 591.653 805.293 591.653 806.2C591.653 807.853 591.146 809.213 590.133 810.28C589.173 811.347 587.973 812.227 586.533 812.92C585.093 813.56 583.706 814.093 582.373 814.52C581.573 814.733 580.639 814.947 579.573 815.16C578.506 815.373 577.493 815.48 576.533 815.48C576.159 816.44 575.866 817.373 575.653 818.28C575.439 819.187 575.333 820.013 575.333 820.76C575.333 821.667 575.546 822.413 575.973 823C576.453 823.587 577.226 823.88 578.293 823.88C578.719 823.88 579.226 823.827 579.812 823.72C580.399 823.613 581.039 823.453 581.733 823.24C583.333 822.707 584.906 821.853 586.453 820.68C587.999 819.507 589.413 818.253 590.693 816.92C592.026 815.533 593.039 814.387 593.733 813.48C593.893 813.64 593.973 813.827 593.973 814.04C593.973 814.307 593.786 814.733 593.413 815.32C592.346 816.813 590.959 818.36 589.253 819.96C587.546 821.56 585.653 822.92 583.573 824.04C581.493 825.107 579.333 825.64 577.093 825.64ZM577.173 813.88C577.866 813.933 578.639 813.933 579.493 813.88C580.399 813.773 581.279 813.587 582.133 813.32C584.319 812.68 585.893 811.667 586.853 810.28C587.866 808.84 588.373 807.56 588.373 806.44C588.373 805.8 588.239 805.267 587.973 804.84C587.706 804.413 587.279 804.2 586.693 804.2C585.146 804.2 583.759 804.787 582.533 805.96C581.306 807.08 580.239 808.387 579.333 809.88C578.426 811.373 577.706 812.707 577.173 813.88ZM609.33 825.72C608.637 825.72 607.81 825.587 606.85 825.32C605.89 825.107 605.41 824.52 605.41 823.56C605.41 823.187 605.49 822.76 605.65 822.28C605.81 821.8 605.97 821.373 606.13 821C606.663 819.613 607.223 818.2 607.81 816.76C608.397 815.32 609.01 813.853 609.65 812.36C608.957 813.16 608.29 813.907 607.65 814.6C607.063 815.24 606.637 815.72 606.37 816.04C606.21 816.253 606.077 816.36 605.97 816.36C605.863 816.36 605.81 816.227 605.81 815.96C605.81 815.533 605.943 815.133 606.21 814.76C606.957 813.8 607.81 812.787 608.77 811.72C609.73 810.653 610.663 809.533 611.57 808.36C613.81 803.667 616.317 799.133 619.09 794.76C621.863 790.333 624.983 786.413 628.45 783C629.517 781.987 630.717 780.947 632.05 779.88C633.383 778.813 634.797 777.907 636.29 777.16C637.837 776.413 639.357 776.04 640.85 776.04C641.65 776.04 642.37 776.253 643.01 776.68C643.703 777.107 644.077 777.773 644.13 778.68V781C644.13 781.213 643.97 781.32 643.65 781.32C643.49 781.32 643.41 781.267 643.41 781.16C643.41 780.307 643.037 779.747 642.29 779.48C641.543 779.16 640.797 779 640.05 779C637.117 779 634.477 779.773 632.13 781.32C629.783 782.813 627.703 784.787 625.89 787.24C624.077 789.64 622.45 792.307 621.01 795.24C619.57 798.12 618.263 800.973 617.09 803.8C615.97 806.573 614.903 809.053 613.89 811.24C613.89 811.24 613.89 811.293 613.89 811.4C613.89 811.507 613.917 811.56 613.97 811.56C614.023 811.56 614.45 811.16 615.25 810.36C616.103 809.507 617.143 808.52 618.37 807.4C619.65 806.28 620.983 805.32 622.37 804.52C623.757 803.667 625.037 803.24 626.21 803.24C626.797 803.24 627.17 803.453 627.33 803.88C627.49 804.253 627.57 804.68 627.57 805.16V805.88C627.303 807.853 626.61 809.987 625.49 812.28C624.423 814.573 623.037 816.76 621.33 818.84C619.677 820.867 617.81 822.52 615.73 823.8C613.703 825.08 611.57 825.72 609.33 825.72ZM610.61 824.36C611.463 824.36 612.37 824.04 613.33 823.4C614.343 822.707 615.117 822.093 615.65 821.56C616.29 820.973 617.063 820.067 617.97 818.84C618.877 817.56 619.757 816.173 620.61 814.68C621.463 813.187 622.183 811.747 622.77 810.36C623.357 808.973 623.65 807.853 623.65 807C623.65 806.733 623.597 806.493 623.49 806.28C623.383 806.067 623.197 805.96 622.93 805.96C622.45 805.96 621.81 806.253 621.01 806.84C620.263 807.427 619.437 808.147 618.53 809C617.677 809.8 616.877 810.6 616.13 811.4C615.437 812.147 614.93 812.707 614.61 813.08C614.023 813.72 613.277 814.653 612.37 815.88C611.463 817.107 610.637 818.36 609.89 819.64C609.197 820.867 608.85 821.907 608.85 822.76C608.85 823.827 609.437 824.36 610.61 824.36ZM632.014 825.64C629.828 825.64 628.308 825.213 627.454 824.36C626.601 823.507 626.174 822.467 626.174 821.24C626.174 819.693 626.574 818.04 627.374 816.28C628.228 814.52 629.028 813.027 629.774 811.8C630.628 810.52 631.774 809.187 633.214 807.8C634.654 806.413 636.228 805.24 637.934 804.28C639.641 803.32 641.294 802.84 642.894 802.84C644.281 802.84 645.241 803.187 645.774 803.88C646.308 804.52 646.574 805.293 646.574 806.2C646.574 807.853 646.068 809.213 645.054 810.28C644.094 811.347 642.894 812.227 641.454 812.92C640.014 813.56 638.628 814.093 637.294 814.52C636.494 814.733 635.561 814.947 634.494 815.16C633.428 815.373 632.414 815.48 631.454 815.48C631.081 816.44 630.788 817.373 630.574 818.28C630.361 819.187 630.254 820.013 630.254 820.76C630.254 821.667 630.468 822.413 630.894 823C631.374 823.587 632.148 823.88 633.214 823.88C633.641 823.88 634.148 823.827 634.734 823.72C635.321 823.613 635.961 823.453 636.654 823.24C638.254 822.707 639.828 821.853 641.374 820.68C642.921 819.507 644.334 818.253 645.614 816.92C646.948 815.533 647.961 814.387 648.654 813.48C648.814 813.64 648.894 813.827 648.894 814.04C648.894 814.307 648.708 814.733 648.334 815.32C647.268 816.813 645.881 818.36 644.174 819.96C642.468 821.56 640.574 822.92 638.494 824.04C636.414 825.107 634.254 825.64 632.014 825.64ZM632.094 813.88C632.788 813.933 633.561 813.933 634.414 813.88C635.321 813.773 636.201 813.587 637.054 813.32C639.241 812.68 640.814 811.667 641.774 810.28C642.788 808.84 643.294 807.56 643.294 806.44C643.294 805.8 643.161 805.267 642.894 804.84C642.628 804.413 642.201 804.2 641.614 804.2C640.068 804.2 638.681 804.787 637.454 805.96C636.228 807.08 635.161 808.387 634.254 809.88C633.348 811.373 632.628 812.707 632.094 813.88ZM647.856 826.2C647.643 826.2 647.643 825.96 647.856 825.48C648.123 825 648.363 824.467 648.576 823.88C648.843 823.293 649.11 822.653 649.376 821.96C649.91 820.68 650.496 819.24 651.136 817.64C651.776 816.04 652.39 814.493 652.976 813C653.563 811.453 654.07 810.147 654.496 809.08C654.976 807.96 655.296 807.24 655.456 806.92C654.71 807.72 653.803 808.733 652.736 809.96C651.723 811.133 650.763 812.28 649.856 813.4C648.95 814.52 648.256 815.4 647.776 816.04C647.616 816.253 647.483 816.36 647.376 816.36C647.27 816.36 647.216 816.227 647.216 815.96C647.216 815.533 647.35 815.133 647.616 814.76C648.63 813.48 649.75 812.04 650.976 810.44C652.256 808.84 653.403 807.373 654.416 806.04C655.43 804.653 656.07 803.747 656.336 803.32C656.923 803.213 657.776 803.053 658.896 802.84C660.07 802.627 660.87 802.333 661.296 801.96C661.456 801.8 661.616 801.72 661.776 801.72C661.883 801.72 661.936 801.827 661.936 802.04C661.99 802.2 661.936 802.387 661.776 802.6C661.456 802.973 660.896 803.853 660.096 805.24C659.35 806.573 658.523 808.067 657.616 809.72C656.763 811.373 655.963 812.867 655.216 814.2C656.07 813.187 656.896 812.227 657.696 811.32C658.55 810.413 659.136 809.773 659.456 809.4C660.096 808.76 660.976 807.96 662.096 807C663.216 806.04 664.39 805.16 665.616 804.36C666.843 803.56 667.91 803.107 668.816 803C669.03 802.947 669.216 802.92 669.376 802.92C669.536 802.92 669.696 802.92 669.856 802.92C670.87 802.92 671.376 803.293 671.376 804.04C671.376 804.36 671.296 804.733 671.136 805.16C670.976 805.587 670.763 806.013 670.496 806.44C670.176 807.08 669.643 808.093 668.896 809.48C668.15 810.813 667.483 812.04 666.896 813.16L670.656 809.4C671.296 808.76 672.176 807.96 673.296 807C674.416 806.04 675.59 805.16 676.816 804.36C678.043 803.56 679.11 803.107 680.016 803C680.23 802.947 680.416 802.92 680.576 802.92C680.79 802.92 680.95 802.92 681.056 802.92C682.23 802.92 682.816 803.347 682.816 804.2C682.816 804.84 682.47 805.693 681.776 806.76C681.403 807.347 680.816 808.333 680.016 809.72C679.216 811.107 678.39 812.627 677.536 814.28C676.736 815.88 676.043 817.373 675.456 818.76C674.87 820.147 674.576 821.16 674.576 821.8C674.576 822.547 674.95 822.92 675.696 822.92C676.39 822.92 677.27 822.52 678.336 821.72C679.456 820.867 680.576 819.853 681.696 818.68C682.87 817.507 683.883 816.387 684.736 815.32C685.11 814.893 685.456 814.467 685.776 814.04C686.15 813.56 686.363 813.293 686.416 813.24C686.523 813.347 686.576 813.533 686.576 813.8C686.576 814.173 686.443 814.547 686.176 814.92C685.963 815.24 685.75 815.533 685.536 815.8C684.523 817.133 683.35 818.52 682.016 819.96C680.736 821.4 679.323 822.627 677.776 823.64C676.23 824.6 674.576 825.16 672.816 825.32C672.283 825.373 671.75 825.267 671.216 825C670.683 824.733 670.416 824.307 670.416 823.72C670.416 822.973 670.603 822.093 670.976 821.08C671.403 820.067 671.856 819.053 672.336 818.04C672.87 817.027 673.27 816.2 673.536 815.56C674.496 813.693 675.376 811.933 676.176 810.28C676.976 808.627 677.536 807.453 677.856 806.76C678.016 806.44 678.096 806.173 678.096 805.96C678.096 805.587 677.803 805.56 677.216 805.88C676.63 806.2 675.91 806.68 675.056 807.32C674.256 807.96 673.51 808.6 672.816 809.24C672.123 809.827 671.67 810.227 671.456 810.44C670.55 811.347 669.456 812.573 668.176 814.12C666.95 815.667 665.803 817.293 664.736 819C663.67 820.653 662.923 822.2 662.496 823.64C661.963 824.12 661.456 824.36 660.976 824.36C660.603 824.36 660.283 824.227 660.016 823.96C659.803 823.693 659.696 823.373 659.696 823C659.696 821.933 660.016 820.68 660.656 819.24C661.35 817.747 661.91 816.52 662.336 815.56C663.296 813.693 664.176 811.933 664.976 810.28C665.776 808.627 666.336 807.453 666.656 806.76C666.816 806.44 666.896 806.173 666.896 805.96C666.896 805.587 666.603 805.56 666.016 805.88C665.43 806.2 664.71 806.68 663.856 807.32C663.056 807.96 662.31 808.6 661.616 809.24C660.923 809.827 660.47 810.227 660.256 810.44C658.976 811.773 657.776 813.133 656.656 814.52C655.59 815.907 654.683 817.4 653.936 819C653.51 819.96 653.056 821.027 652.576 822.2C652.096 823.373 651.696 824.36 651.376 825.16C650.683 825.213 649.99 825.4 649.296 825.72C648.603 826.04 648.123 826.2 647.856 826.2ZM703.03 825.64C700.843 825.64 699.323 825.213 698.47 824.36C697.617 823.507 697.19 822.467 697.19 821.24C697.19 819.693 697.59 818.04 698.39 816.28C699.243 814.52 700.043 813.027 700.79 811.8C701.643 810.52 702.79 809.187 704.23 807.8C705.67 806.413 707.243 805.24 708.95 804.28C710.657 803.32 712.31 802.84 713.91 802.84C715.297 802.84 716.257 803.187 716.79 803.88C717.323 804.52 717.59 805.293 717.59 806.2C717.59 807.853 717.083 809.213 716.07 810.28C715.11 811.347 713.91 812.227 712.47 812.92C711.03 813.56 709.643 814.093 708.31 814.52C707.51 814.733 706.577 814.947 705.51 815.16C704.443 815.373 703.43 815.48 702.47 815.48C702.097 816.44 701.803 817.373 701.59 818.28C701.377 819.187 701.27 820.013 701.27 820.76C701.27 821.667 701.483 822.413 701.91 823C702.39 823.587 703.163 823.88 704.23 823.88C704.657 823.88 705.163 823.827 705.75 823.72C706.337 823.613 706.977 823.453 707.67 823.24C709.27 822.707 710.843 821.853 712.39 820.68C713.937 819.507 715.35 818.253 716.63 816.92C717.963 815.533 718.977 814.387 719.67 813.48C719.83 813.64 719.91 813.827 719.91 814.04C719.91 814.307 719.723 814.733 719.35 815.32C718.283 816.813 716.897 818.36 715.19 819.96C713.483 821.56 711.59 822.92 709.51 824.04C707.43 825.107 705.27 825.64 703.03 825.64ZM703.11 813.88C703.803 813.933 704.577 813.933 705.43 813.88C706.337 813.773 707.217 813.587 708.07 813.32C710.257 812.68 711.83 811.667 712.79 810.28C713.803 808.84 714.31 807.56 714.31 806.44C714.31 805.8 714.177 805.267 713.91 804.84C713.643 804.413 713.217 804.2 712.63 804.2C711.083 804.2 709.697 804.787 708.47 805.96C707.243 807.08 706.177 808.387 705.27 809.88C704.363 811.373 703.643 812.707 703.11 813.88ZM723.192 826.28C722.232 826.28 721.219 826.147 720.152 825.88C719.085 825.613 718.125 825.187 717.272 824.6C716.472 823.96 715.939 823.107 715.672 822.04C715.619 821.88 715.592 821.64 715.592 821.32C715.592 820.573 715.752 819.747 716.072 818.84C716.445 817.933 716.899 817.293 717.432 816.92C717.645 816.813 717.805 816.813 717.912 816.92C718.072 817.027 718.099 817.133 717.992 817.24C717.939 817.4 717.859 817.613 717.752 817.88C717.645 818.093 717.565 818.333 717.512 818.6C717.352 819.987 717.645 821.213 718.392 822.28C718.712 822.707 719.085 823.107 719.512 823.48C719.992 823.853 720.445 824.173 720.872 824.44C721.245 824.653 721.699 824.813 722.232 824.92C722.765 824.973 723.299 825 723.832 825C724.685 825 725.512 824.893 726.312 824.68C727.112 824.467 727.699 824.12 728.072 823.64C728.765 822.787 729.112 821.827 729.112 820.76C729.112 819.96 728.899 819.107 728.472 818.2C728.045 817.293 727.379 816.333 726.472 815.32C725.885 814.68 725.325 813.987 724.792 813.24C724.259 812.493 723.912 811.693 723.752 810.84C723.699 810.68 723.645 810.52 723.592 810.36C723.592 810.2 723.592 810.04 723.592 809.88C722.899 810.893 722.179 811.853 721.432 812.76C720.739 813.613 720.125 814.36 719.592 815C719.379 815.32 719.192 815.48 719.032 815.48C718.925 815.48 718.872 815.373 718.872 815.16C718.872 814.68 719.085 814.173 719.512 813.64C719.939 813.16 720.419 812.573 720.952 811.88C721.485 811.133 721.912 810.547 722.232 810.12C723.139 808.787 723.805 807.747 724.232 807C724.712 806.2 725.219 805.48 725.752 804.84C726.339 804.147 727.059 803.587 727.912 803.16C728.819 802.733 729.752 802.52 730.712 802.52C731.832 802.52 732.845 802.707 733.752 803.08C734.712 803.4 735.219 804.253 735.272 805.64C735.272 806.28 735.139 806.947 734.872 807.64C734.659 808.28 734.419 808.893 734.152 809.48C733.992 809.8 733.752 810.04 733.432 810.2C733.165 810.307 733.032 810.253 733.032 810.04C733.032 809.827 733.059 809.587 733.112 809.32C733.165 809.053 733.192 808.813 733.192 808.6C733.192 807.693 733.032 806.893 732.712 806.2C732.445 805.453 732.045 804.92 731.512 804.6C730.979 804.227 730.419 804.04 729.832 804.04C728.979 804.04 728.152 804.387 727.352 805.08C726.552 805.72 726.152 806.573 726.152 807.64C726.152 807.747 726.152 807.88 726.152 808.04C726.152 808.2 726.179 808.333 726.232 808.44C726.445 809.293 727.085 810.253 728.152 811.32C729.219 812.387 730.045 813.32 730.632 814.12C731.645 815.507 732.152 816.92 732.152 818.36C732.152 819.8 731.725 821.133 730.872 822.36C730.072 823.533 728.979 824.467 727.592 825.16C726.259 825.907 724.792 826.28 723.192 826.28ZM740.186 825.24C739.652 825.24 739.199 825.133 738.826 824.92C738.452 824.707 738.266 824.307 738.266 823.72C738.266 822.973 738.452 822.093 738.826 821.08C739.252 820.067 739.706 819.053 740.186 818.04C740.666 817.027 741.066 816.2 741.386 815.56C741.652 815.08 741.999 814.333 742.426 813.32C742.906 812.253 743.386 811.16 743.866 810.04C744.399 808.867 744.826 807.88 745.146 807.08C745.519 806.28 745.706 805.88 745.706 805.88C745.226 806.413 744.586 807.16 743.786 808.12C743.039 809.08 742.212 810.093 741.306 811.16C740.452 812.173 739.652 813.133 738.906 814.04C738.212 814.947 737.706 815.613 737.386 816.04C737.226 816.253 737.092 816.36 736.986 816.36C736.879 816.36 736.826 816.227 736.826 815.96C736.826 815.533 736.959 815.133 737.226 814.76C737.866 813.96 738.639 813 739.546 811.88C740.452 810.707 741.359 809.533 742.266 808.36C743.226 807.187 744.052 806.147 744.746 805.24C744.319 805.24 743.759 805.267 743.066 805.32C742.426 805.373 741.839 805.453 741.306 805.56C740.772 805.613 740.479 805.64 740.426 805.64C740.159 805.64 740.186 805.427 740.506 805C740.826 804.573 741.252 804.147 741.786 803.72C742.319 803.293 742.719 803.08 742.986 803.08C743.039 803.08 743.466 803.107 744.266 803.16C745.066 803.16 745.652 803.16 746.026 803.16C747.092 801.72 748.132 800.067 749.146 798.2C750.212 796.333 751.252 794.28 752.266 792.04C752.692 791.987 753.412 791.693 754.426 791.16C755.492 790.573 756.319 789.987 756.906 789.4C757.172 789.133 757.386 789 757.546 789C757.866 789 757.866 789.213 757.546 789.64C757.172 790.067 756.532 790.973 755.626 792.36C754.719 793.693 753.706 795.32 752.586 797.24C751.466 799.107 750.399 801.08 749.386 803.16H755.866C756.452 803.16 756.746 803.24 756.746 803.4C756.746 803.613 756.346 803.827 755.546 804.04C754.639 804.307 753.679 804.467 752.666 804.52C751.706 804.573 750.799 804.68 749.946 804.84C749.146 805 748.559 805.347 748.186 805.88C747.866 806.253 747.412 807.053 746.826 808.28C746.239 809.507 745.599 810.92 744.906 812.52C744.266 814.067 743.706 815.64 743.226 817.24C742.746 818.787 742.452 820.093 742.346 821.16V821.48C742.346 821.907 742.479 822.253 742.746 822.52C743.012 822.787 743.279 822.92 743.546 822.92C744.239 822.92 745.119 822.493 746.186 821.64C747.306 820.787 748.452 819.773 749.626 818.6C750.799 817.373 751.812 816.253 752.666 815.24C753.039 814.813 753.359 814.413 753.626 814.04C753.946 813.667 754.132 813.427 754.186 813.32C754.292 813.533 754.346 813.693 754.346 813.8C754.346 814.12 754.239 814.467 754.026 814.84C753.866 815.213 753.679 815.533 753.466 815.8C752.452 817.133 751.226 818.547 749.786 820.04C748.346 821.48 746.799 822.707 745.146 823.72C743.546 824.733 741.892 825.24 740.186 825.24ZM763.725 825.24C763.192 825.24 762.738 825.133 762.365 824.92C761.992 824.707 761.805 824.307 761.805 823.72C761.805 822.973 761.992 822.12 762.365 821.16C762.738 820.2 763.165 819.267 763.645 818.36C764.125 817.4 764.552 816.627 764.925 816.04C763.058 818.013 761.112 819.88 759.085 821.64C758.072 822.493 756.952 823.293 755.725 824.04C754.498 824.787 753.192 825.16 751.805 825.16C751.272 825.16 750.898 825 750.685 824.68C750.472 824.307 750.365 823.88 750.365 823.4C750.365 823.133 750.392 822.947 750.445 822.84C750.712 820.76 751.378 818.6 752.445 816.36C753.512 814.12 754.818 812.013 756.365 810.04C757.912 808.067 759.485 806.467 761.085 805.24C762.898 803.853 764.898 803.16 767.085 803.16H776.285C776.552 803.16 776.685 803.267 776.685 803.48C776.685 803.907 776.445 804.12 775.965 804.12C775.432 804.12 774.898 804.467 774.365 805.16C773.832 805.8 773.432 806.333 773.165 806.76C772.792 807.347 772.205 808.333 771.405 809.72C770.605 811.107 769.778 812.627 768.925 814.28C768.125 815.88 767.432 817.373 766.845 818.76C766.258 820.147 765.965 821.16 765.965 821.8C765.965 822.547 766.338 822.92 767.085 822.92C767.885 822.92 768.792 822.547 769.805 821.8C770.818 821.053 771.832 820.147 772.845 819.08C773.912 817.96 774.872 816.867 775.725 815.8C776.632 814.68 777.352 813.8 777.885 813.16C778.205 813.48 778.178 813.933 777.805 814.52C777.485 815.053 777.192 815.48 776.925 815.8C775.858 817.187 774.632 818.627 773.245 820.12C771.858 821.56 770.338 822.787 768.685 823.8C767.085 824.76 765.432 825.24 763.725 825.24ZM755.085 822.44C755.725 822.44 756.605 821.987 757.725 821.08C758.898 820.12 760.152 818.947 761.485 817.56C762.818 816.12 764.072 814.627 765.245 813.08C766.418 811.48 767.378 810.04 768.125 808.76C768.925 807.427 769.325 806.413 769.325 805.72C769.325 805.133 769.138 804.733 768.765 804.52C768.445 804.307 768.018 804.2 767.485 804.2C766.632 804.2 765.698 804.52 764.685 805.16C763.725 805.747 762.952 806.333 762.365 806.92C761.725 807.507 760.952 808.44 760.045 809.72C759.192 810.947 758.338 812.307 757.485 813.8C756.632 815.293 755.912 816.733 755.325 818.12C754.738 819.507 754.445 820.627 754.445 821.48C754.445 822.12 754.658 822.44 755.085 822.44ZM776.841 826.12C776.627 826.12 776.627 825.907 776.841 825.48C777.107 825 777.347 824.467 777.561 823.88C777.827 823.293 778.094 822.653 778.361 821.96C778.894 820.68 779.481 819.24 780.121 817.64C780.761 816.04 781.374 814.493 781.961 813C782.547 811.453 783.054 810.147 783.481 809.08C783.961 807.96 784.281 807.24 784.441 806.92C783.694 807.72 782.787 808.733 781.721 809.96C780.707 811.133 779.747 812.28 778.841 813.4C777.934 814.52 777.241 815.4 776.761 816.04C776.601 816.253 776.467 816.36 776.361 816.36C776.254 816.36 776.201 816.227 776.201 815.96C776.201 815.533 776.334 815.133 776.601 814.76C777.614 813.48 778.734 812.04 779.961 810.44C781.241 808.84 782.387 807.373 783.401 806.04C784.414 804.653 785.054 803.747 785.321 803.32C785.907 803.213 786.761 803.053 787.881 802.84C789.054 802.627 789.854 802.333 790.281 801.96C790.441 801.8 790.601 801.72 790.761 801.72C790.867 801.72 790.921 801.827 790.921 802.04C790.974 802.2 790.921 802.387 790.761 802.6C790.441 802.92 789.961 803.613 789.321 804.68C788.734 805.747 788.067 806.973 787.321 808.36C786.574 809.747 785.854 811.08 785.161 812.36C785.694 811.56 786.387 810.627 787.241 809.56C788.147 808.44 789.134 807.373 790.201 806.36C791.267 805.293 792.334 804.413 793.401 803.72C794.521 803.027 795.561 802.68 796.521 802.68C797.214 802.68 797.801 802.84 798.281 803.16C798.761 803.427 799.134 803.933 799.401 804.68C799.561 805.053 799.641 805.48 799.641 805.96C799.641 806.867 799.401 807.747 798.921 808.6C798.494 809.4 798.174 810.013 797.961 810.44C797.907 810.6 797.721 810.76 797.401 810.92C797.081 811.027 796.947 810.973 797.001 810.76C797.054 810.493 797.081 810.227 797.081 809.96C797.134 809.693 797.161 809.4 797.161 809.08C797.161 808.173 796.974 807.347 796.601 806.6C796.281 805.853 795.667 805.48 794.761 805.48C793.907 805.48 792.867 806.013 791.641 807.08C790.414 808.147 789.187 809.373 787.961 810.76C786.414 812.573 785.187 814.307 784.281 815.96C783.374 817.56 782.627 819.133 782.041 820.68C781.721 821.533 781.401 822.387 781.081 823.24C780.761 824.04 780.521 824.68 780.361 825.16C779.667 825.213 778.974 825.373 778.281 825.64C777.587 825.96 777.107 826.12 776.841 826.12Z" fill="#FF65C5"/>
<path d="M327.36 761V755.8H337.6V706.44H348.32V755.8H358.48V761H327.36ZM315.68 726.12V712.04H328.24C325.733 712.04 323.947 712.6 322.88 713.72C321.867 714.84 321.36 716.733 321.36 719.4V726.12H315.68ZM315.68 712.04V706.44H370.16V712.04H315.68ZM364.48 719.4C364.48 716.733 363.973 714.84 362.96 713.72C361.947 712.6 360.16 712.04 357.6 712.04H370.16V726.12H364.48V719.4ZM375.881 761V755.88H382.681V725.08H376.521V719.88H391.801V733.96L392.921 733.72V755.88H403.321V761H375.881ZM389.961 735.88C390.014 731.773 390.707 728.467 392.041 725.96C393.374 723.453 395.134 721.64 397.321 720.52C399.507 719.347 401.961 718.76 404.681 718.76C407.667 718.76 410.067 719.507 411.881 721C413.694 722.493 414.601 724.493 414.601 727C414.601 728.867 414.041 730.387 412.921 731.56C411.801 732.733 410.307 733.32 408.441 733.32C406.787 733.32 405.481 732.893 404.521 732.04C403.561 731.133 403.081 729.987 403.081 728.6C403.081 726.947 403.641 725.693 404.761 724.84C405.881 723.987 407.587 723.64 409.881 723.8L409.321 727.08C409.161 725.8 408.547 724.813 407.481 724.12C406.467 723.427 405.107 723.08 403.401 723.08C401.534 723.08 399.801 723.56 398.201 724.52C396.601 725.427 395.321 726.84 394.361 728.76C393.401 730.627 392.921 733 392.921 735.88H389.961ZM440.141 761.88C436.087 761.88 432.487 761.053 429.341 759.4C426.247 757.693 423.821 755.24 422.061 752.04C420.301 748.84 419.421 744.973 419.421 740.44C419.421 735.853 420.274 731.987 421.981 728.84C423.741 725.64 426.167 723.213 429.261 721.56C432.354 719.853 435.927 719 439.981 719L440.221 724.2C438.034 724.2 436.141 724.76 434.541 725.88C432.994 726.947 431.767 728.627 430.861 730.92C430.007 733.16 429.581 736.067 429.581 739.64C429.581 744.227 430.701 747.853 432.941 750.52C435.234 753.133 438.354 754.44 442.301 754.44C444.701 754.44 446.674 754.013 448.221 753.16C449.821 752.253 451.047 751.133 451.901 749.8C452.807 748.413 453.421 747 453.741 745.56H459.341C459.234 747.587 458.754 749.56 457.901 751.48C457.047 753.4 455.847 755.16 454.301 756.76C452.754 758.307 450.807 759.56 448.461 760.52C446.114 761.427 443.341 761.88 440.141 761.88ZM424.381 740.2V735.16H449.581L459.661 738.04V740.2H424.381ZM449.581 735.16C449.527 733.08 449.127 731.213 448.381 729.56C447.687 727.907 446.647 726.6 445.261 725.64C443.927 724.68 442.247 724.2 440.221 724.2L439.981 719C444.247 719 447.847 719.8 450.781 721.4C453.714 723 455.927 725.24 457.421 728.12C458.914 730.947 459.661 734.253 459.661 738.04L449.581 735.16ZM427.021 714.92L434.701 703.8H445.181L452.941 714.92H445.661L437.021 706.28H441.501L432.861 714.92H427.021ZM489.886 761.64C486.953 761.64 484.26 761.133 481.806 760.12C479.406 759.107 477.406 757.533 475.806 755.4C474.26 753.213 473.3 750.413 472.926 747H474.606C475.726 749.4 477.033 751.293 478.526 752.68C480.02 754.013 481.566 754.973 483.166 755.56C484.82 756.093 486.42 756.36 487.966 756.36C490.26 756.36 492.02 755.88 493.246 754.92C494.526 753.96 495.166 752.627 495.166 750.92C495.166 749.747 494.82 748.787 494.126 748.04C493.486 747.24 492.606 746.6 491.486 746.12C490.366 745.64 489.06 745.267 487.566 745L482.526 744.04C479.486 743.453 476.873 742.627 474.686 741.56C472.5 740.493 470.82 739.107 469.646 737.4C468.526 735.64 467.966 733.453 467.966 730.84C467.966 726.947 469.246 724.04 471.806 722.12C474.42 720.147 477.7 719.16 481.646 719.16C484.42 719.16 486.953 719.64 489.246 720.6C491.54 721.507 493.46 723 495.006 725.08C496.553 727.16 497.486 729.88 497.806 733.24H496.126C495.22 730.947 494.02 729.16 492.526 727.88C491.086 726.547 489.566 725.64 487.966 725.16C486.42 724.627 484.98 724.36 483.646 724.36C481.62 724.36 479.966 724.813 478.686 725.72C477.46 726.573 476.846 727.827 476.846 729.48C476.846 730.653 477.14 731.613 477.726 732.36C478.366 733.107 479.246 733.693 480.366 734.12C481.486 734.547 482.82 734.92 484.366 735.24L489.406 736.2C492.233 736.733 494.766 737.507 497.006 738.52C499.246 739.533 501.006 740.893 502.286 742.6C503.566 744.253 504.206 746.467 504.206 749.24C504.206 753.293 502.9 756.387 500.286 758.52C497.673 760.6 494.206 761.64 489.886 761.64ZM468.766 761V747H472.926L474.766 750.04V761H468.766ZM497.806 733.24L496.046 730.2V719.88H502.046V733.24H497.806ZM562.496 761L543.776 721V706.44H548.256L568.976 750.92H567.136L587.216 706.44H588.016V719.72L569.456 761H562.496ZM530.176 761V755.8H537.376V711.64H530.336V706.44H543.776V755.8H551.696V761H530.176ZM580.176 761V755.8H588.016V706.44H605.616V711.64H598.576V755.8H605.776V761H580.176ZM631.781 761.88C627.728 761.88 624.128 761.053 620.981 759.4C617.888 757.693 615.461 755.24 613.701 752.04C611.941 748.84 611.061 744.973 611.061 740.44C611.061 735.853 611.915 731.987 613.621 728.84C615.381 725.64 617.808 723.213 620.901 721.56C623.995 719.853 627.568 719 631.621 719L631.861 724.2C629.675 724.2 627.781 724.76 626.181 725.88C624.635 726.947 623.408 728.627 622.501 730.92C621.648 733.16 621.221 736.067 621.221 739.64C621.221 744.227 622.341 747.853 624.581 750.52C626.875 753.133 629.995 754.44 633.941 754.44C636.341 754.44 638.315 754.013 639.861 753.16C641.461 752.253 642.688 751.133 643.541 749.8C644.448 748.413 645.061 747 645.381 745.56H650.981C650.875 747.587 650.395 749.56 649.541 751.48C648.688 753.4 647.488 755.16 645.941 756.76C644.395 758.307 642.448 759.56 640.101 760.52C637.755 761.427 634.981 761.88 631.781 761.88ZM616.021 740.2V735.16H641.221L651.301 738.04V740.2H616.021ZM641.221 735.16C641.168 733.08 640.768 731.213 640.021 729.56C639.328 727.907 638.288 726.6 636.901 725.64C635.568 724.68 633.888 724.2 631.861 724.2L631.621 719C635.888 719 639.488 719.8 642.421 721.4C645.355 723 647.568 725.24 649.061 728.12C650.555 730.947 651.301 734.253 651.301 738.04L641.221 735.16ZM685.365 761V755.88H690.805V733.08C690.805 730.627 690.165 728.84 688.885 727.72C687.605 726.6 685.845 726.04 683.605 726.04C682.058 726.04 680.565 726.387 679.125 727.08C677.738 727.773 676.618 728.893 675.765 730.44C674.912 731.987 674.485 734.013 674.485 736.52L672.645 736.6C672.645 732.813 673.152 729.64 674.165 727.08C675.178 724.467 676.778 722.52 678.965 721.24C681.152 719.907 684.005 719.24 687.525 719.24C691.472 719.24 694.698 720.307 697.205 722.44C699.765 724.573 701.045 728.013 701.045 732.76V755.88H706.405V761H685.365ZM657.365 761V755.88H664.165V725.08H658.005V719.88H673.285V733.4L674.485 733.24V755.88H679.925V761H657.365ZM710.568 761V755.88H717.368V725.08H711.208V719.88H727.608V755.88H733.608V761H710.568ZM722.008 715.16C720.141 715.16 718.621 714.627 717.448 713.56C716.275 712.44 715.688 710.973 715.688 709.16C715.688 707.293 716.275 705.827 717.448 704.76C718.621 703.693 720.141 703.16 722.008 703.16C723.928 703.16 725.448 703.693 726.568 704.76C727.741 705.827 728.328 707.293 728.328 709.16C728.328 710.973 727.741 712.44 726.568 713.56C725.448 714.627 723.928 715.16 722.008 715.16ZM765.756 761V755.88H771.196V733.08C771.196 730.627 770.556 728.84 769.276 727.72C767.996 726.6 766.236 726.04 763.996 726.04C762.449 726.04 760.956 726.387 759.516 727.08C758.129 727.773 757.009 728.893 756.156 730.44C755.302 731.987 754.876 734.013 754.876 736.52L753.036 736.6C753.036 732.813 753.542 729.64 754.556 727.08C755.569 724.467 757.169 722.52 759.356 721.24C761.542 719.907 764.396 719.24 767.916 719.24C771.862 719.24 775.089 720.307 777.596 722.44C780.156 724.573 781.436 728.013 781.436 732.76V755.88H786.796V761H765.756ZM737.756 761V755.88H744.556V725.08H738.396V719.88H753.676V733.4L754.876 733.24V755.88H760.316V761H737.756ZM801.679 734.84C800.025 734.84 798.559 734.36 797.279 733.4C796.052 732.44 795.439 731 795.439 729.08C795.439 726.84 796.265 725 797.919 723.56C799.625 722.067 801.812 720.947 804.479 720.2C807.199 719.4 810.079 719 813.119 719C818.132 719 821.999 720.04 824.719 722.12C827.439 724.2 828.772 727.347 828.719 731.56L819.119 730.28C819.119 728.093 818.399 726.467 816.959 725.4C815.572 724.28 813.545 723.72 810.879 723.72C809.225 723.72 807.652 723.933 806.159 724.36C804.665 724.787 803.412 725.453 802.399 726.36C801.439 727.213 800.852 728.36 800.639 729.8V725.96C802.559 725.96 804.105 726.307 805.279 727C806.452 727.693 807.012 728.813 806.959 730.36C806.959 731.693 806.479 732.787 805.519 733.64C804.612 734.44 803.332 734.84 801.679 734.84ZM830.879 761.88C827.305 761.88 824.612 760.893 822.799 758.92C821.039 756.947 820.159 754.173 820.159 750.6V747.88H819.039V737.16H818.639L819.119 733.64V730.28L828.719 731.56V751.24C828.719 752.413 829.012 753.373 829.599 754.12C830.185 754.867 831.039 755.24 832.159 755.24C833.279 755.24 834.132 754.867 834.719 754.12C835.305 753.373 835.599 752.413 835.599 751.24V737.24H841.519V750.68C841.519 754.147 840.639 756.893 838.879 758.92C837.119 760.893 834.452 761.88 830.879 761.88ZM805.599 761.8C801.545 761.8 798.292 760.813 795.839 758.84C793.385 756.867 792.159 754.227 792.159 750.92C792.159 748.467 792.692 746.467 793.759 744.92C794.825 743.32 796.292 742.04 798.159 741.08C800.079 740.067 802.265 739.267 804.719 738.68L811.519 737.08C813.119 736.707 814.479 736.253 815.599 735.72C816.719 735.187 817.572 734.493 818.159 733.64C818.799 732.787 819.119 731.667 819.119 730.28L819.359 737.16H819.039C818.612 738.12 817.892 738.92 816.879 739.56C815.865 740.2 814.505 740.76 812.799 741.24L809.919 741.96C808.479 742.387 807.199 742.893 806.079 743.48C805.012 744.067 804.185 744.787 803.599 745.64C803.012 746.44 802.719 747.507 802.719 748.84C802.719 750.707 803.332 752.147 804.559 753.16C805.839 754.173 807.519 754.68 809.599 754.68C811.305 754.68 812.852 754.333 814.239 753.64C815.679 752.893 816.825 751.693 817.679 750.04C818.585 748.387 819.039 746.227 819.039 743.56L821.199 743.96C821.252 748.173 820.612 751.613 819.279 754.28C817.945 756.893 816.079 758.813 813.679 760.04C811.332 761.213 808.639 761.8 805.599 761.8ZM869.808 761.64C866.875 761.64 864.181 761.133 861.728 760.12C859.328 759.107 857.328 757.533 855.728 755.4C854.181 753.213 853.221 750.413 852.848 747H854.528C855.648 749.4 856.955 751.293 858.448 752.68C859.941 754.013 861.488 754.973 863.088 755.56C864.741 756.093 866.341 756.36 867.888 756.36C870.181 756.36 871.941 755.88 873.168 754.92C874.448 753.96 875.088 752.627 875.088 750.92C875.088 749.747 874.741 748.787 874.048 748.04C873.408 747.24 872.528 746.6 871.408 746.12C870.288 745.64 868.981 745.267 867.488 745L862.448 744.04C859.408 743.453 856.795 742.627 854.608 741.56C852.421 740.493 850.741 739.107 849.568 737.4C848.448 735.64 847.888 733.453 847.888 730.84C847.888 726.947 849.168 724.04 851.728 722.12C854.341 720.147 857.621 719.16 861.568 719.16C864.341 719.16 866.875 719.64 869.168 720.6C871.461 721.507 873.381 723 874.928 725.08C876.475 727.16 877.408 729.88 877.728 733.24H876.048C875.141 730.947 873.941 729.16 872.448 727.88C871.008 726.547 869.488 725.64 867.888 725.16C866.341 724.627 864.901 724.36 863.568 724.36C861.541 724.36 859.888 724.813 858.608 725.72C857.381 726.573 856.768 727.827 856.768 729.48C856.768 730.653 857.061 731.613 857.648 732.36C858.288 733.107 859.168 733.693 860.288 734.12C861.408 734.547 862.741 734.92 864.288 735.24L869.328 736.2C872.155 736.733 874.688 737.507 876.928 738.52C879.168 739.533 880.928 740.893 882.208 742.6C883.488 744.253 884.128 746.467 884.128 749.24C884.128 753.293 882.821 756.387 880.208 758.52C877.595 760.6 874.128 761.64 869.808 761.64ZM848.688 761V747H852.848L854.688 750.04V761H848.688ZM877.728 733.24L875.968 730.2V719.88H881.968V733.24H877.728Z" fill="#FF65C5"/>
</svg>
