<svg width="250" height="250" viewBox="0 0 250 250" fill="none" xmlns="http://www.w3.org/2000/svg">
<rect width="250" height="250" fill="#1E1E1E"/>
<rect width="250" height="250" fill="white"/>
<path d="M39.328 131V129.368H41.992V114.632H45.256V129.368H47.92V131H39.328ZM35.176 120.344V116.408H39.088C38.336 116.408 37.8 116.584 37.48 116.936C37.176 117.272 37.024 117.832 37.024 118.616V120.344H35.176ZM35.176 116.408V114.632H52.096V116.408H35.176ZM50.224 118.616C50.224 117.832 50.072 117.272 49.768 116.936C49.464 116.584 48.936 116.408 48.184 116.408H52.096V120.344H50.224V118.616ZM54.037 131V129.392H56.029V120.176H54.229V118.544H58.789V122.768L59.125 122.696V129.392H61.909V131H54.037ZM58.189 123.392C58.205 122.128 58.421 121.12 58.837 120.368C59.253 119.616 59.805 119.072 60.493 118.736C61.197 118.384 61.973 118.208 62.821 118.208C63.749 118.208 64.493 118.44 65.053 118.904C65.629 119.368 65.917 119.984 65.917 120.752C65.917 121.312 65.741 121.768 65.389 122.12C65.053 122.472 64.605 122.648 64.045 122.648C63.549 122.648 63.149 122.512 62.845 122.24C62.541 121.968 62.389 121.624 62.389 121.208C62.389 120.712 62.557 120.336 62.893 120.08C63.229 119.808 63.749 119.696 64.453 119.744L64.237 120.8C64.189 120.416 63.997 120.12 63.661 119.912C63.325 119.704 62.893 119.608 62.365 119.624C61.805 119.624 61.277 119.76 60.781 120.032C60.285 120.304 59.885 120.72 59.581 121.28C59.277 121.84 59.125 122.544 59.125 123.392H58.189ZM73.9244 131.288C72.6604 131.288 71.5484 131.04 70.5884 130.544C69.6444 130.032 68.9004 129.296 68.3564 128.336C67.8284 127.36 67.5644 126.168 67.5644 124.76C67.5644 123.368 67.8284 122.192 68.3564 121.232C68.8844 120.256 69.6204 119.52 70.5644 119.024C71.5084 118.512 72.5964 118.256 73.8284 118.256L73.9244 119.96C73.2364 119.96 72.6444 120.128 72.1484 120.464C71.6684 120.784 71.2924 121.288 71.0204 121.976C70.7644 122.648 70.6364 123.512 70.6364 124.568C70.6364 125.912 70.9724 126.984 71.6444 127.784C72.3324 128.568 73.2604 128.96 74.4284 128.96C75.1324 128.96 75.7084 128.848 76.1564 128.624C76.6204 128.384 76.9804 128.088 77.2364 127.736C77.5084 127.384 77.7084 127.024 77.8364 126.656H79.8044C79.7404 127.216 79.5724 127.768 79.3004 128.312C79.0444 128.856 78.6764 129.352 78.1964 129.8C77.7324 130.248 77.1484 130.608 76.4444 130.88C75.7404 131.152 74.9004 131.288 73.9244 131.288ZM69.0044 124.808V123.2H76.8524L79.9484 123.992V124.808H69.0044ZM76.8524 123.2C76.8364 122.608 76.7164 122.072 76.4924 121.592C76.2684 121.096 75.9404 120.704 75.5084 120.416C75.0924 120.112 74.5644 119.96 73.9244 119.96L73.8284 118.256C75.1564 118.256 76.2764 118.496 77.1884 118.976C78.1004 119.456 78.7884 120.128 79.2524 120.992C79.7164 121.856 79.9484 122.856 79.9484 123.992L76.8524 123.2ZM69.8204 116.96L72.2204 113.624H75.4364L77.8364 116.96H75.5324L72.9644 114.392H74.3324L71.7164 116.96H69.8204ZM89.5786 131.192C88.6826 131.192 87.8666 131.048 87.1306 130.76C86.4106 130.472 85.8106 130.024 85.3306 129.416C84.8506 128.792 84.5466 127.976 84.4186 126.968H84.9946C85.3306 127.608 85.7226 128.112 86.1706 128.48C86.6186 128.832 87.0826 129.08 87.5626 129.224C88.0426 129.368 88.4986 129.44 88.9306 129.44C89.6186 129.44 90.1546 129.296 90.5386 129.008C90.9226 128.72 91.1146 128.328 91.1146 127.832C91.1146 127.48 91.0186 127.2 90.8266 126.992C90.6346 126.768 90.3706 126.592 90.0346 126.464C89.6986 126.336 89.3146 126.232 88.8826 126.152L87.2266 125.888C86.3306 125.728 85.5466 125.496 84.8746 125.192C84.2026 124.872 83.6826 124.448 83.3146 123.92C82.9466 123.376 82.7626 122.696 82.7626 121.88C82.7626 120.696 83.1546 119.808 83.9386 119.216C84.7226 118.624 85.7306 118.328 86.9626 118.328C87.7946 118.328 88.5626 118.464 89.2666 118.736C89.9706 119.008 90.5546 119.44 91.0186 120.032C91.4826 120.624 91.7706 121.408 91.8826 122.384H91.3066C91.0186 121.776 90.6506 121.304 90.2026 120.968C89.7706 120.632 89.3226 120.4 88.8586 120.272C88.3946 120.128 87.9706 120.056 87.5866 120.056C86.9786 120.056 86.4906 120.192 86.1226 120.464C85.7546 120.72 85.5706 121.088 85.5706 121.568C85.5706 121.904 85.6506 122.176 85.8106 122.384C85.9866 122.592 86.2346 122.76 86.5546 122.888C86.8906 123 87.2986 123.104 87.7786 123.2L89.4106 123.488C90.2586 123.616 91.0266 123.832 91.7146 124.136C92.4026 124.44 92.9466 124.856 93.3466 125.384C93.7626 125.912 93.9706 126.592 93.9706 127.424C93.9706 128.656 93.5706 129.592 92.7706 130.232C91.9706 130.872 90.9066 131.192 89.5786 131.192ZM83.0026 131V126.968H84.4186L84.9466 127.952V131H83.0026ZM91.8826 122.384L91.3546 121.424V118.52H93.3226V122.384H91.8826ZM112.721 131L106.889 119.192V114.632H108.209L114.737 127.976H114.137L120.449 114.632H120.761V118.808L114.977 131H112.721ZM102.689 131V129.368H104.825V116.264H102.737V114.632H106.889V129.368H109.193V131H102.689ZM118.457 131V129.368H120.761V114.632H126.041V116.264H123.977V129.368H126.089V131H118.457ZM134.253 131.288C132.989 131.288 131.877 131.04 130.917 130.544C129.973 130.032 129.229 129.296 128.685 128.336C128.157 127.36 127.893 126.168 127.893 124.76C127.893 123.368 128.157 122.192 128.685 121.232C129.213 120.256 129.949 119.52 130.893 119.024C131.837 118.512 132.925 118.256 134.157 118.256L134.253 119.96C133.565 119.96 132.973 120.128 132.477 120.464C131.997 120.784 131.621 121.288 131.349 121.976C131.093 122.648 130.965 123.512 130.965 124.568C130.965 125.912 131.301 126.984 131.973 127.784C132.661 128.568 133.589 128.96 134.757 128.96C135.461 128.96 136.037 128.848 136.485 128.624C136.949 128.384 137.309 128.088 137.565 127.736C137.837 127.384 138.037 127.024 138.165 126.656H140.133C140.069 127.216 139.901 127.768 139.629 128.312C139.373 128.856 139.005 129.352 138.525 129.8C138.061 130.248 137.477 130.608 136.773 130.88C136.069 131.152 135.229 131.288 134.253 131.288ZM129.333 124.808V123.2H137.181L140.277 123.992V124.808H129.333ZM137.181 123.2C137.165 122.608 137.045 122.072 136.821 121.592C136.597 121.096 136.269 120.704 135.837 120.416C135.421 120.112 134.893 119.96 134.253 119.96L134.157 118.256C135.485 118.256 136.605 118.496 137.517 118.976C138.429 119.456 139.117 120.128 139.581 120.992C140.045 121.856 140.277 122.856 140.277 123.992L137.181 123.2ZM151.322 131V129.392H152.858V122.696C152.858 121.928 152.65 121.368 152.234 121.016C151.818 120.664 151.242 120.488 150.506 120.488C150.01 120.488 149.538 120.6 149.09 120.824C148.658 121.032 148.306 121.384 148.034 121.88C147.762 122.36 147.626 123 147.626 123.8H146.978C146.978 122.616 147.138 121.616 147.458 120.8C147.794 119.984 148.306 119.376 148.994 118.976C149.682 118.56 150.586 118.352 151.706 118.352C152.954 118.352 153.978 118.688 154.778 119.36C155.578 120.032 155.978 121.112 155.978 122.6V129.392H157.586V131H151.322ZM142.49 131V129.392H144.482V120.152H142.682V118.544H147.242V122.864L147.626 122.816V129.392H149.162V131H142.49ZM159.248 131V129.392H161.24V120.152H159.44V118.544H164.336V129.392H166.088V131H159.248ZM162.656 117.152C162.064 117.152 161.576 116.984 161.192 116.648C160.824 116.312 160.64 115.864 160.64 115.304C160.64 114.744 160.824 114.304 161.192 113.984C161.576 113.664 162.064 113.504 162.656 113.504C163.248 113.504 163.728 113.664 164.096 113.984C164.464 114.304 164.648 114.752 164.648 115.328C164.648 115.872 164.464 116.312 164.096 116.648C163.728 116.984 163.248 117.152 162.656 117.152ZM176.611 131V129.392H178.147V122.696C178.147 121.928 177.939 121.368 177.523 121.016C177.107 120.664 176.531 120.488 175.795 120.488C175.299 120.488 174.827 120.6 174.379 120.824C173.947 121.032 173.595 121.384 173.323 121.88C173.051 122.36 172.915 123 172.915 123.8H172.267C172.267 122.616 172.427 121.616 172.747 120.8C173.083 119.984 173.595 119.376 174.283 118.976C174.971 118.56 175.875 118.352 176.995 118.352C178.243 118.352 179.267 118.688 180.067 119.36C180.867 120.032 181.267 121.112 181.267 122.6V129.392H182.875V131H176.611ZM167.779 131V129.392H169.771V120.152H167.971V118.544H172.531V122.864L172.915 122.816V129.392H174.451V131H167.779ZM187.706 122.888C187.194 122.888 186.738 122.752 186.338 122.48C185.954 122.192 185.762 121.752 185.762 121.16C185.762 120.536 186.018 120.016 186.53 119.6C187.058 119.168 187.738 118.848 188.57 118.64C189.418 118.416 190.306 118.304 191.234 118.304C192.77 118.304 193.954 118.616 194.786 119.24C195.634 119.864 196.05 120.8 196.034 122.048L193.106 121.64C193.106 121.032 192.882 120.576 192.434 120.272C192.002 119.968 191.386 119.816 190.586 119.816C190.074 119.816 189.586 119.88 189.122 120.008C188.658 120.12 188.274 120.304 187.97 120.56C187.666 120.816 187.49 121.168 187.442 121.616L187.466 120.2C188.042 120.216 188.498 120.336 188.834 120.56C189.17 120.768 189.33 121.096 189.314 121.544C189.298 121.944 189.146 122.272 188.858 122.528C188.586 122.768 188.202 122.888 187.706 122.888ZM196.898 131.264C195.762 131.264 194.898 130.96 194.306 130.352C193.714 129.728 193.418 128.856 193.418 127.736V127.088H193.082V123.848H192.962L193.106 122.672V121.64L196.034 122.048V128C196.034 128.384 196.13 128.696 196.322 128.936C196.514 129.176 196.794 129.296 197.162 129.296C197.53 129.296 197.81 129.176 198.002 128.936C198.194 128.696 198.29 128.384 198.29 128V124.448H200.258V127.784C200.258 128.872 199.97 129.728 199.394 130.352C198.834 130.96 198.002 131.264 196.898 131.264ZM188.954 131.24C187.722 131.24 186.714 130.944 185.93 130.352C185.162 129.76 184.778 128.944 184.778 127.904C184.778 127.152 184.938 126.536 185.258 126.056C185.594 125.576 186.05 125.192 186.626 124.904C187.202 124.6 187.866 124.368 188.618 124.208L190.73 123.704C191.21 123.608 191.626 123.48 191.978 123.32C192.33 123.16 192.602 122.944 192.794 122.672C193.002 122.4 193.106 122.056 193.106 121.64L193.178 123.848H193.082C192.938 124.152 192.698 124.408 192.362 124.616C192.042 124.808 191.634 124.968 191.138 125.096L190.274 125.288C189.842 125.416 189.45 125.56 189.098 125.72C188.762 125.88 188.49 126.08 188.282 126.32C188.09 126.56 187.994 126.88 187.994 127.28C187.994 127.84 188.194 128.272 188.594 128.576C188.994 128.864 189.53 129.008 190.202 129.008C190.698 129.008 191.162 128.904 191.594 128.696C192.042 128.472 192.402 128.12 192.674 127.64C192.946 127.144 193.082 126.488 193.082 125.672L193.85 125.72C193.85 127.048 193.626 128.12 193.178 128.936C192.746 129.752 192.162 130.344 191.426 130.712C190.69 131.064 189.866 131.24 188.954 131.24ZM209.063 131.192C208.167 131.192 207.351 131.048 206.615 130.76C205.895 130.472 205.295 130.024 204.815 129.416C204.335 128.792 204.031 127.976 203.903 126.968H204.479C204.815 127.608 205.207 128.112 205.655 128.48C206.103 128.832 206.567 129.08 207.047 129.224C207.527 129.368 207.983 129.44 208.415 129.44C209.103 129.44 209.639 129.296 210.023 129.008C210.407 128.72 210.599 128.328 210.599 127.832C210.599 127.48 210.503 127.2 210.311 126.992C210.119 126.768 209.855 126.592 209.519 126.464C209.183 126.336 208.799 126.232 208.367 126.152L206.711 125.888C205.815 125.728 205.031 125.496 204.359 125.192C203.687 124.872 203.167 124.448 202.799 123.92C202.431 123.376 202.247 122.696 202.247 121.88C202.247 120.696 202.639 119.808 203.423 119.216C204.207 118.624 205.215 118.328 206.447 118.328C207.279 118.328 208.047 118.464 208.751 118.736C209.455 119.008 210.039 119.44 210.503 120.032C210.967 120.624 211.255 121.408 211.367 122.384H210.791C210.503 121.776 210.135 121.304 209.687 120.968C209.255 120.632 208.807 120.4 208.343 120.272C207.879 120.128 207.455 120.056 207.071 120.056C206.463 120.056 205.975 120.192 205.607 120.464C205.239 120.72 205.055 121.088 205.055 121.568C205.055 121.904 205.135 122.176 205.295 122.384C205.471 122.592 205.719 122.76 206.039 122.888C206.375 123 206.783 123.104 207.263 123.2L208.895 123.488C209.743 123.616 210.511 123.832 211.199 124.136C211.887 124.44 212.431 124.856 212.831 125.384C213.247 125.912 213.455 126.592 213.455 127.424C213.455 128.656 213.055 129.592 212.255 130.232C211.455 130.872 210.391 131.192 209.063 131.192ZM202.487 131V126.968H203.903L204.431 127.952V131H202.487ZM211.367 122.384L210.839 121.424V118.52H212.807V122.384H211.367Z" fill="#FF65C5"/>
<path d="M66.952 150.696C66.104 150.696 65.288 150.568 64.504 150.312C63.736 150.072 63.112 149.664 62.632 149.088C62.152 148.512 61.912 147.736 61.912 146.76C61.912 145.72 62.112 144.704 62.512 143.712C62.912 142.72 63.448 141.8 64.12 140.952C64.792 140.088 65.544 139.344 66.376 138.72C67.112 138.16 67.96 137.704 68.92 137.352C69.896 137 70.864 136.824 71.824 136.824C72.224 136.824 72.6 136.856 72.952 136.92C73.304 136.968 73.664 137.08 74.032 137.256C74.352 137.4 74.608 137.584 74.8 137.808C74.992 138.016 75.088 138.256 75.088 138.528C75.088 138.56 75.088 138.6 75.088 138.648C75.088 138.696 75.08 138.736 75.064 138.768C75 139.024 74.848 139.32 74.608 139.656C74.384 139.976 74.208 140.312 74.08 140.664C74.064 140.728 73.976 140.784 73.816 140.832C73.656 140.864 73.592 140.848 73.624 140.784C73.752 140.576 73.848 140.32 73.912 140.016C73.992 139.712 74.032 139.408 74.032 139.104C74.032 138.88 74.008 138.672 73.96 138.48C73.928 138.272 73.864 138.096 73.768 137.952C73.608 137.664 73.36 137.464 73.024 137.352C72.688 137.24 72.328 137.184 71.944 137.184C71.576 137.184 71.208 137.224 70.84 137.304C70.472 137.384 70.152 137.472 69.88 137.568C68.952 137.904 68.064 138.432 67.216 139.152C66.464 139.808 65.792 140.568 65.2 141.432C64.624 142.296 64.168 143.184 63.832 144.096C63.496 145.008 63.328 145.88 63.328 146.712C63.328 147.56 63.512 148.232 63.88 148.728C64.248 149.224 64.728 149.576 65.32 149.784C65.912 149.992 66.552 150.096 67.24 150.096C67.848 150.096 68.448 150.032 69.04 149.904C69.648 149.776 70.2 149.616 70.696 149.424C71.544 149.104 72.304 148.712 72.976 148.248C73.664 147.784 74.304 147.184 74.896 146.448C74.976 146.368 75.032 146.328 75.064 146.328C75.112 146.328 75.136 146.36 75.136 146.424C75.136 146.552 75.072 146.704 74.944 146.88C74.4 147.616 73.784 148.232 73.096 148.728C72.408 149.224 71.672 149.632 70.888 149.952C70.36 150.16 69.744 150.336 69.04 150.48C68.352 150.624 67.656 150.696 66.952 150.696ZM74.8563 150.048C74.6003 150.048 74.3683 150 74.1603 149.904C73.9683 149.792 73.8723 149.56 73.8723 149.208C73.8723 148.648 74.0163 148.088 74.3043 147.528C74.5923 146.952 74.8883 146.448 75.1923 146.016C75.4643 145.648 75.7683 145.304 76.1043 144.984C76.4563 144.648 76.8323 144.36 77.2323 144.12C77.4883 143.96 77.8323 143.792 78.2643 143.616C78.7123 143.424 79.0883 143.328 79.3923 143.328C79.6483 143.328 79.8723 143.4 80.0643 143.544C80.2563 143.672 80.3523 143.912 80.3523 144.264C80.3523 144.808 80.2083 145.368 79.9203 145.944C79.6483 146.504 79.3603 147 79.0563 147.432C78.9123 147.624 78.7683 147.808 78.6243 147.984C78.4803 148.144 78.3203 148.312 78.1443 148.488C78.7363 148.488 79.2803 148.32 79.7763 147.984C80.2723 147.632 80.7043 147.208 81.0723 146.712L81.1203 146.664C81.1683 146.664 81.1923 146.712 81.1923 146.808C81.1923 146.92 81.1603 147.024 81.0963 147.12C80.7763 147.568 80.3763 147.968 79.8963 148.32C79.4163 148.656 78.8723 148.824 78.2643 148.824C78.2003 148.824 78.1363 148.824 78.0723 148.824C78.0083 148.824 77.9443 148.816 77.8803 148.8C76.9843 149.632 75.9763 150.048 74.8563 150.048ZM75.4803 149.64C75.7043 149.64 75.9443 149.56 76.2003 149.4C76.4723 149.24 76.6803 149.088 76.8242 148.944C77.0963 148.672 77.3443 148.384 77.5683 148.08C77.7923 147.76 78.0003 147.44 78.1923 147.12C78.4163 146.736 78.6403 146.28 78.8643 145.752C79.0883 145.224 79.2003 144.728 79.2003 144.264C79.2003 143.896 79.0723 143.712 78.8163 143.712C78.6083 143.712 78.3523 143.8 78.0483 143.976C77.7603 144.152 77.5443 144.312 77.4003 144.456C76.8563 145.016 76.4003 145.624 76.0323 146.28C75.8243 146.648 75.6003 147.08 75.3603 147.576C75.1203 148.072 75.0003 148.528 75.0003 148.944C75.0003 149.008 75.0003 149.072 75.0003 149.136C75.0163 149.184 75.0323 149.24 75.0483 149.304C75.1123 149.528 75.2563 149.64 75.4803 149.64ZM80.9678 150.36C80.9038 150.36 80.9038 150.288 80.9678 150.144C81.0478 150 81.1198 149.84 81.1838 149.664C81.2638 149.488 81.3438 149.296 81.4238 149.088C81.5838 148.704 81.7598 148.272 81.9518 147.792C82.1438 147.312 82.3278 146.848 82.5038 146.4C82.6798 145.936 82.8318 145.544 82.9598 145.224C83.1038 144.888 83.1998 144.672 83.2478 144.576C83.0238 144.816 82.7518 145.12 82.4318 145.488C82.1278 145.84 81.8398 146.184 81.5678 146.52C81.2958 146.856 81.0878 147.12 80.9438 147.312C80.8958 147.376 80.8558 147.408 80.8238 147.408C80.7918 147.408 80.7758 147.368 80.7758 147.288C80.7758 147.16 80.8158 147.04 80.8958 146.928C81.1998 146.544 81.5358 146.112 81.9038 145.632C82.2878 145.152 82.6318 144.712 82.9358 144.312C83.2398 143.896 83.4318 143.624 83.5118 143.496C83.6878 143.464 83.9438 143.416 84.2798 143.352C84.6318 143.288 84.8718 143.2 84.9998 143.088C85.0478 143.04 85.0958 143.016 85.1438 143.016C85.1758 143.016 85.1918 143.048 85.1918 143.112C85.2078 143.16 85.1918 143.216 85.1438 143.28C85.0478 143.392 84.8798 143.656 84.6398 144.072C84.4158 144.472 84.1678 144.92 83.8958 145.416C83.6398 145.912 83.3998 146.36 83.1758 146.76C83.3678 146.504 83.5758 146.256 83.7998 146.016C84.0238 145.776 84.2398 145.544 84.4478 145.32C84.6398 145.128 84.9038 144.888 85.2398 144.6C85.5758 144.312 85.9278 144.048 86.2958 143.808C86.6638 143.568 86.9838 143.432 87.2558 143.4C87.3198 143.384 87.3758 143.376 87.4238 143.376C87.4878 143.376 87.5358 143.376 87.5678 143.376C87.9198 143.376 88.0958 143.504 88.0958 143.76C88.0958 143.952 87.9918 144.208 87.7838 144.528C87.6718 144.704 87.4958 145 87.2558 145.416C87.0318 145.816 86.7998 146.256 86.5598 146.736C86.3358 147.2 86.1358 147.64 85.9598 148.056C85.7998 148.456 85.7198 148.752 85.7198 148.944C85.7198 149.168 85.8318 149.28 86.0558 149.28C86.3278 149.28 86.6238 149.144 86.9438 148.872C87.2798 148.6 87.6398 148.256 88.0238 147.84C88.4078 147.408 88.7918 146.952 89.1758 146.472C89.2078 146.504 89.2238 146.56 89.2238 146.64C89.2238 146.752 89.1838 146.864 89.1038 146.976C89.0398 147.072 88.9758 147.16 88.9118 147.24C88.7518 147.448 88.5358 147.712 88.2638 148.032C88.0078 148.336 87.7438 148.64 87.4718 148.944C87.1998 149.232 86.9518 149.464 86.7278 149.64C86.5678 149.752 86.3598 149.872 86.1038 150C85.8478 150.128 85.5918 150.192 85.3358 150.192C85.0478 150.192 84.8478 150.12 84.7358 149.976C84.6238 149.816 84.5678 149.624 84.5678 149.4C84.5678 149.144 84.6158 148.872 84.7118 148.584C84.8078 148.296 84.9118 148.024 85.0238 147.768C85.1518 147.496 85.2478 147.296 85.3118 147.168C85.5998 146.608 85.8638 146.08 86.1038 145.584C86.3438 145.088 86.5118 144.736 86.6078 144.528C86.6558 144.432 86.6798 144.352 86.6798 144.288C86.6798 144.176 86.5918 144.168 86.4158 144.264C86.2398 144.36 86.0238 144.504 85.7678 144.696C85.5278 144.888 85.3038 145.08 85.0958 145.272C84.8878 145.448 84.7518 145.568 84.6878 145.632C84.0958 146.256 83.5758 146.952 83.1278 147.72C82.6958 148.472 82.3278 149.248 82.0238 150.048C81.8158 150.064 81.6078 150.12 81.3998 150.216C81.1918 150.312 81.0478 150.36 80.9678 150.36ZM83.1777 155.424C82.5537 155.424 82.0337 155.32 81.6177 155.112C81.1857 154.92 80.8977 154.624 80.7537 154.224C80.7377 154.176 80.7297 154.128 80.7297 154.08C80.7137 154.032 80.7057 153.976 80.7057 153.912C80.7057 153.672 80.7617 153.4 80.8737 153.096C80.9857 152.808 81.1057 152.496 81.2337 152.16C81.2817 152.064 81.3377 152.016 81.4017 152.016C81.5137 152.016 81.5457 152.096 81.4977 152.256C81.3857 152.496 81.3297 152.752 81.3297 153.024C81.3297 153.584 81.5777 154.032 82.0737 154.368C82.5537 154.72 83.1057 154.896 83.7297 154.896C84.2097 154.896 84.6737 154.784 85.1217 154.56C85.8737 154.176 86.4897 153.648 86.9697 152.976C87.4497 152.304 87.8737 151.624 88.2417 150.936C88.8017 149.864 89.2817 148.744 89.6817 147.576C90.0977 146.392 90.5377 145.224 91.0017 144.072H90.4497C90.3697 144.072 90.2817 144.08 90.1857 144.096C90.0897 144.112 90.0017 144.128 89.9217 144.144L89.8737 144.12C89.9057 143.944 90.0577 143.792 90.3297 143.664C90.6177 143.52 90.8417 143.448 91.0017 143.448H91.2897C91.5297 142.872 91.8097 142.24 92.1297 141.552C92.4657 140.864 92.8257 140.176 93.2097 139.488C93.5937 138.784 94.0097 138.144 94.4577 137.568C94.9217 136.992 95.4017 136.536 95.8977 136.2C96.7137 135.624 97.6177 135.336 98.6097 135.336C98.8017 135.336 98.9857 135.4 99.1617 135.528C99.3537 135.64 99.4417 135.816 99.4257 136.056L99.3537 136.92C99.3537 136.952 99.3297 136.976 99.2817 136.992C99.2337 137.008 99.2017 137 99.1857 136.968C99.1217 136.648 98.9457 136.416 98.6577 136.272C98.3857 136.112 98.0657 136.032 97.6977 136.032C97.1057 136.032 96.5617 136.224 96.0657 136.608C95.5857 136.992 95.0657 137.704 94.5057 138.744C94.2977 139.144 94.0657 139.616 93.8097 140.16C93.5697 140.704 93.3297 141.264 93.0897 141.84C92.8497 142.416 92.6177 142.952 92.3937 143.448H94.1217C94.2337 143.448 94.3457 143.448 94.4577 143.448C94.5857 143.432 94.7057 143.416 94.8177 143.4C94.8177 143.464 94.7697 143.528 94.6737 143.592C94.5937 143.64 94.5217 143.68 94.4577 143.712C94.0577 143.92 93.6817 144.04 93.3297 144.072C92.9777 144.088 92.5777 144.088 92.1297 144.072C91.7777 144.952 91.4417 145.792 91.1217 146.592C90.8177 147.376 90.4817 148.144 90.1137 148.896C89.8097 149.568 89.4337 150.28 88.9857 151.032C88.5377 151.784 88.0257 152.496 87.4497 153.168C86.8737 153.84 86.2337 154.384 85.5297 154.8C84.8097 155.216 84.0257 155.424 83.1777 155.424ZM93.4891 150.048C93.2331 150.048 93.0011 150 92.7931 149.904C92.6011 149.792 92.5051 149.56 92.5051 149.208C92.5051 148.648 92.6491 148.088 92.9371 147.528C93.2251 146.952 93.5211 146.448 93.8251 146.016C94.0971 145.648 94.4011 145.304 94.7371 144.984C95.0891 144.648 95.4651 144.36 95.8651 144.12C96.1211 143.96 96.4651 143.792 96.8971 143.616C97.3451 143.424 97.7211 143.328 98.0251 143.328C98.2811 143.328 98.5051 143.4 98.6971 143.544C98.8891 143.672 98.9851 143.912 98.9851 144.264C98.9851 144.808 98.8411 145.368 98.5531 145.944C98.2811 146.504 97.9931 147 97.6891 147.432C97.5451 147.624 97.4011 147.808 97.2571 147.984C97.1131 148.144 96.9531 148.312 96.7771 148.488C97.3691 148.488 97.9131 148.32 98.4091 147.984C98.9051 147.632 99.3371 147.208 99.7051 146.712L99.7531 146.664C99.8011 146.664 99.8251 146.712 99.8251 146.808C99.8251 146.92 99.7931 147.024 99.7291 147.12C99.4091 147.568 99.0091 147.968 98.5291 148.32C98.0491 148.656 97.5051 148.824 96.8971 148.824C96.8331 148.824 96.7691 148.824 96.7051 148.824C96.6411 148.824 96.5771 148.816 96.5131 148.8C95.6171 149.632 94.6091 150.048 93.4891 150.048ZM94.1131 149.64C94.3371 149.64 94.5771 149.56 94.8331 149.4C95.1051 149.24 95.3131 149.088 95.4571 148.944C95.7291 148.672 95.9771 148.384 96.2011 148.08C96.4251 147.76 96.6331 147.44 96.8251 147.12C97.0491 146.736 97.2731 146.28 97.4971 145.752C97.7211 145.224 97.8331 144.728 97.8331 144.264C97.8331 143.896 97.7051 143.712 97.4491 143.712C97.2411 143.712 96.9851 143.8 96.6811 143.976C96.3931 144.152 96.1771 144.312 96.0331 144.456C95.4891 145.016 95.0331 145.624 94.6651 146.28C94.4571 146.648 94.2331 147.08 93.9931 147.576C93.7531 148.072 93.6331 148.528 93.6331 148.944C93.6331 149.008 93.6331 149.072 93.6331 149.136C93.6491 149.184 93.6651 149.24 93.6811 149.304C93.7451 149.528 93.8891 149.64 94.1131 149.64ZM99.6006 150.336C99.5366 150.336 99.5366 150.272 99.6006 150.144C99.6806 150 99.7526 149.84 99.8166 149.664C99.8966 149.488 99.9766 149.296 100.057 149.088C100.217 148.704 100.393 148.272 100.585 147.792C100.777 147.312 100.961 146.848 101.137 146.4C101.313 145.936 101.465 145.544 101.593 145.224C101.737 144.888 101.833 144.672 101.881 144.576C101.657 144.816 101.385 145.12 101.065 145.488C100.761 145.84 100.473 146.184 100.201 146.52C99.9286 146.856 99.7206 147.12 99.5766 147.312C99.5286 147.376 99.4886 147.408 99.4566 147.408C99.4246 147.408 99.4086 147.368 99.4086 147.288C99.4086 147.16 99.4486 147.04 99.5286 146.928C99.8326 146.544 100.169 146.112 100.537 145.632C100.921 145.152 101.265 144.712 101.569 144.312C101.873 143.896 102.065 143.624 102.145 143.496C102.321 143.464 102.577 143.416 102.913 143.352C103.265 143.288 103.505 143.2 103.633 143.088C103.681 143.04 103.729 143.016 103.777 143.016C103.809 143.016 103.825 143.048 103.825 143.112C103.841 143.16 103.825 143.216 103.777 143.28C103.681 143.376 103.537 143.584 103.345 143.904C103.169 144.224 102.969 144.592 102.745 145.008C102.521 145.424 102.305 145.824 102.097 146.208C102.257 145.968 102.465 145.688 102.721 145.368C102.993 145.032 103.289 144.712 103.609 144.408C103.929 144.088 104.249 143.824 104.569 143.616C104.905 143.408 105.217 143.304 105.505 143.304C105.713 143.304 105.889 143.352 106.033 143.448C106.177 143.528 106.289 143.68 106.369 143.904C106.417 144.016 106.441 144.144 106.441 144.288C106.441 144.56 106.369 144.824 106.225 145.08C106.097 145.32 106.001 145.504 105.937 145.632C105.921 145.68 105.865 145.728 105.769 145.776C105.673 145.808 105.633 145.792 105.649 145.728C105.665 145.648 105.673 145.568 105.673 145.488C105.689 145.408 105.697 145.32 105.697 145.224C105.697 144.952 105.641 144.704 105.529 144.48C105.433 144.256 105.249 144.144 104.977 144.144C104.721 144.144 104.409 144.304 104.041 144.624C103.673 144.944 103.305 145.312 102.937 145.728C102.473 146.272 102.105 146.792 101.833 147.288C101.561 147.768 101.337 148.24 101.161 148.704C101.065 148.96 100.969 149.216 100.873 149.472C100.777 149.712 100.705 149.904 100.657 150.048C100.449 150.064 100.241 150.112 100.033 150.192C99.8246 150.288 99.6806 150.336 99.6006 150.336ZM106.956 150.072C106.796 150.072 106.66 150.04 106.548 149.976C106.436 149.912 106.38 149.792 106.38 149.616C106.38 149.392 106.436 149.128 106.548 148.824C106.676 148.52 106.812 148.216 106.956 147.912C107.1 147.608 107.22 147.36 107.316 147.168C107.396 147.024 107.5 146.8 107.628 146.496C107.772 146.176 107.916 145.848 108.06 145.512C108.22 145.16 108.348 144.864 108.444 144.624C108.556 144.384 108.612 144.264 108.612 144.264C108.468 144.424 108.276 144.648 108.036 144.936C107.812 145.224 107.564 145.528 107.292 145.848C107.036 146.152 106.796 146.44 106.572 146.712C106.364 146.984 106.212 147.184 106.116 147.312C106.068 147.376 106.028 147.408 105.996 147.408C105.964 147.408 105.948 147.368 105.948 147.288C105.948 147.16 105.988 147.04 106.068 146.928C106.26 146.688 106.492 146.4 106.764 146.064C107.036 145.712 107.308 145.36 107.58 145.008C107.868 144.656 108.116 144.344 108.324 144.072C108.196 144.072 108.028 144.08 107.82 144.096C107.628 144.112 107.452 144.136 107.292 144.168C107.132 144.184 107.044 144.192 107.028 144.192C106.948 144.192 106.956 144.128 107.052 144C107.148 143.872 107.276 143.744 107.436 143.616C107.596 143.488 107.716 143.424 107.796 143.424C107.812 143.424 107.94 143.432 108.18 143.448C108.42 143.448 108.596 143.448 108.708 143.448C109.028 143.016 109.34 142.52 109.644 141.96C109.964 141.4 110.276 140.784 110.58 140.112C110.708 140.096 110.924 140.008 111.228 139.848C111.548 139.672 111.796 139.496 111.972 139.32C112.052 139.24 112.116 139.2 112.164 139.2C112.26 139.2 112.26 139.264 112.164 139.392C112.052 139.52 111.86 139.792 111.588 140.208C111.316 140.608 111.012 141.096 110.676 141.672C110.34 142.232 110.02 142.824 109.716 143.448H111.66C111.836 143.448 111.924 143.472 111.924 143.52C111.924 143.584 111.804 143.648 111.564 143.712C111.292 143.792 111.004 143.84 110.7 143.856C110.412 143.872 110.14 143.904 109.884 143.952C109.644 144 109.468 144.104 109.356 144.264C109.26 144.376 109.124 144.616 108.948 144.984C108.772 145.352 108.58 145.776 108.372 146.256C108.18 146.72 108.012 147.192 107.868 147.672C107.724 148.136 107.636 148.528 107.604 148.848V148.944C107.604 149.072 107.644 149.176 107.724 149.256C107.804 149.336 107.884 149.376 107.964 149.376C108.172 149.376 108.436 149.248 108.756 148.992C109.092 148.736 109.436 148.432 109.788 148.08C110.14 147.712 110.444 147.376 110.7 147.072C110.812 146.944 110.908 146.824 110.988 146.712C111.084 146.6 111.14 146.528 111.156 146.496C111.188 146.56 111.204 146.608 111.204 146.64C111.204 146.736 111.172 146.84 111.108 146.952C111.06 147.064 111.004 147.16 110.94 147.24C110.636 147.64 110.268 148.064 109.836 148.512C109.404 148.944 108.94 149.312 108.444 149.616C107.964 149.92 107.468 150.072 106.956 150.072ZM111.138 150.048C110.882 150.048 110.65 150 110.442 149.904C110.25 149.792 110.154 149.56 110.154 149.208C110.154 148.648 110.298 148.088 110.586 147.528C110.874 146.952 111.17 146.448 111.474 146.016C111.746 145.648 112.05 145.304 112.386 144.984C112.738 144.648 113.114 144.36 113.514 144.12C113.77 143.96 114.114 143.792 114.546 143.616C114.994 143.424 115.37 143.328 115.674 143.328C115.93 143.328 116.154 143.4 116.346 143.544C116.538 143.672 116.634 143.912 116.634 144.264C116.634 144.808 116.49 145.368 116.202 145.944C115.93 146.504 115.642 147 115.338 147.432C115.194 147.624 115.05 147.808 114.906 147.984C114.762 148.144 114.602 148.312 114.426 148.488C115.018 148.488 115.562 148.32 116.058 147.984C116.554 147.632 116.986 147.208 117.354 146.712L117.402 146.664C117.45 146.664 117.474 146.712 117.474 146.808C117.474 146.92 117.442 147.024 117.378 147.12C117.058 147.568 116.658 147.968 116.178 148.32C115.698 148.656 115.154 148.824 114.546 148.824C114.482 148.824 114.418 148.824 114.354 148.824C114.29 148.824 114.226 148.816 114.162 148.8C113.266 149.632 112.258 150.048 111.138 150.048ZM111.762 149.64C111.986 149.64 112.226 149.56 112.482 149.4C112.754 149.24 112.962 149.088 113.105 148.944C113.378 148.672 113.626 148.384 113.85 148.08C114.074 147.76 114.282 147.44 114.474 147.12C114.698 146.736 114.922 146.28 115.146 145.752C115.37 145.224 115.482 144.728 115.482 144.264C115.482 143.896 115.354 143.712 115.098 143.712C114.89 143.712 114.634 143.8 114.33 143.976C114.042 144.152 113.826 144.312 113.682 144.456C113.138 145.016 112.682 145.624 112.314 146.28C112.106 146.648 111.882 147.08 111.642 147.576C111.402 148.072 111.282 148.528 111.282 148.944C111.282 149.008 111.282 149.072 111.282 149.136C111.298 149.184 111.314 149.24 111.33 149.304C111.394 149.528 111.538 149.64 111.762 149.64ZM122.528 150.192C121.872 150.192 121.416 150.064 121.16 149.808C120.904 149.552 120.776 149.24 120.776 148.872C120.776 148.408 120.896 147.912 121.136 147.384C121.392 146.856 121.632 146.408 121.856 146.04C122.112 145.656 122.456 145.256 122.888 144.84C123.32 144.424 123.792 144.072 124.304 143.784C124.816 143.496 125.312 143.352 125.792 143.352C126.208 143.352 126.496 143.456 126.656 143.664C126.816 143.856 126.896 144.088 126.896 144.36C126.896 144.856 126.744 145.264 126.44 145.584C126.152 145.904 125.792 146.168 125.36 146.376C124.928 146.568 124.512 146.728 124.112 146.856C123.872 146.92 123.592 146.984 123.272 147.048C122.952 147.112 122.648 147.144 122.36 147.144C122.248 147.432 122.16 147.712 122.096 147.984C122.032 148.256 122 148.504 122 148.728C122 149 122.064 149.224 122.192 149.4C122.336 149.576 122.568 149.664 122.888 149.664C123.016 149.664 123.168 149.648 123.344 149.616C123.52 149.584 123.712 149.536 123.92 149.472C124.4 149.312 124.872 149.056 125.336 148.704C125.8 148.352 126.224 147.976 126.608 147.576C127.008 147.16 127.312 146.816 127.52 146.544C127.568 146.592 127.592 146.648 127.592 146.712C127.592 146.792 127.536 146.92 127.424 147.096C127.104 147.544 126.688 148.008 126.176 148.488C125.664 148.968 125.096 149.376 124.472 149.712C123.848 150.032 123.2 150.192 122.528 150.192ZM122.552 146.664C122.76 146.68 122.992 146.68 123.248 146.664C123.52 146.632 123.784 146.576 124.04 146.496C124.696 146.304 125.168 146 125.456 145.584C125.76 145.152 125.912 144.768 125.912 144.432C125.912 144.24 125.872 144.08 125.792 143.952C125.712 143.824 125.584 143.76 125.408 143.76C124.944 143.76 124.528 143.936 124.16 144.288C123.792 144.624 123.472 145.016 123.2 145.464C122.928 145.912 122.712 146.312 122.552 146.664ZM132.199 150.216C131.991 150.216 131.743 150.176 131.455 150.096C131.167 150.032 131.023 149.856 131.023 149.568C131.023 149.456 131.047 149.328 131.095 149.184C131.143 149.04 131.191 148.912 131.239 148.8C131.399 148.384 131.567 147.96 131.743 147.528C131.919 147.096 132.103 146.656 132.295 146.208C132.087 146.448 131.887 146.672 131.695 146.88C131.519 147.072 131.391 147.216 131.311 147.312C131.263 147.376 131.223 147.408 131.191 147.408C131.159 147.408 131.143 147.368 131.143 147.288C131.143 147.16 131.183 147.04 131.263 146.928C131.487 146.64 131.743 146.336 132.031 146.016C132.319 145.696 132.599 145.36 132.871 145.008C133.543 143.6 134.295 142.24 135.127 140.928C135.959 139.6 136.895 138.424 137.935 137.4C138.255 137.096 138.615 136.784 139.015 136.464C139.415 136.144 139.839 135.872 140.287 135.648C140.751 135.424 141.207 135.312 141.655 135.312C141.895 135.312 142.111 135.376 142.303 135.504C142.511 135.632 142.623 135.832 142.639 136.104V136.8C142.639 136.864 142.591 136.896 142.495 136.896C142.447 136.896 142.423 136.88 142.423 136.848C142.423 136.592 142.311 136.424 142.087 136.344C141.863 136.248 141.639 136.2 141.415 136.2C140.535 136.2 139.743 136.432 139.039 136.896C138.335 137.344 137.711 137.936 137.167 138.672C136.623 139.392 136.135 140.192 135.703 141.072C135.271 141.936 134.879 142.792 134.527 143.64C134.191 144.472 133.871 145.216 133.567 145.872C133.567 145.872 133.567 145.888 133.567 145.92C133.567 145.952 133.575 145.968 133.591 145.968C133.607 145.968 133.735 145.848 133.975 145.608C134.231 145.352 134.543 145.056 134.911 144.72C135.295 144.384 135.695 144.096 136.111 143.856C136.527 143.6 136.911 143.472 137.263 143.472C137.439 143.472 137.551 143.536 137.599 143.664C137.647 143.776 137.671 143.904 137.671 144.048V144.264C137.591 144.856 137.383 145.496 137.047 146.184C136.727 146.872 136.311 147.528 135.799 148.152C135.303 148.76 134.743 149.256 134.119 149.64C133.511 150.024 132.871 150.216 132.199 150.216ZM132.583 149.808C132.839 149.808 133.111 149.712 133.399 149.52C133.703 149.312 133.935 149.128 134.095 148.968C134.287 148.792 134.519 148.52 134.791 148.152C135.063 147.768 135.327 147.352 135.583 146.904C135.839 146.456 136.055 146.024 136.231 145.608C136.407 145.192 136.495 144.856 136.495 144.6C136.495 144.52 136.479 144.448 136.447 144.384C136.415 144.32 136.359 144.288 136.279 144.288C136.135 144.288 135.943 144.376 135.703 144.552C135.479 144.728 135.231 144.944 134.959 145.2C134.703 145.44 134.463 145.68 134.239 145.92C134.031 146.144 133.879 146.312 133.783 146.424C133.607 146.616 133.383 146.896 133.111 147.264C132.839 147.632 132.591 148.008 132.367 148.392C132.159 148.76 132.055 149.072 132.055 149.328C132.055 149.648 132.231 149.808 132.583 149.808ZM139.004 150.192C138.348 150.192 137.892 150.064 137.636 149.808C137.38 149.552 137.252 149.24 137.252 148.872C137.252 148.408 137.372 147.912 137.612 147.384C137.868 146.856 138.108 146.408 138.332 146.04C138.588 145.656 138.932 145.256 139.364 144.84C139.796 144.424 140.268 144.072 140.78 143.784C141.292 143.496 141.788 143.352 142.268 143.352C142.684 143.352 142.972 143.456 143.132 143.664C143.292 143.856 143.372 144.088 143.372 144.36C143.372 144.856 143.22 145.264 142.916 145.584C142.628 145.904 142.268 146.168 141.836 146.376C141.404 146.568 140.988 146.728 140.588 146.856C140.348 146.92 140.068 146.984 139.748 147.048C139.428 147.112 139.124 147.144 138.836 147.144C138.724 147.432 138.636 147.712 138.572 147.984C138.508 148.256 138.476 148.504 138.476 148.728C138.476 149 138.54 149.224 138.668 149.4C138.812 149.576 139.044 149.664 139.364 149.664C139.492 149.664 139.644 149.648 139.82 149.616C139.996 149.584 140.188 149.536 140.396 149.472C140.876 149.312 141.348 149.056 141.812 148.704C142.276 148.352 142.7 147.976 143.084 147.576C143.484 147.16 143.788 146.816 143.996 146.544C144.044 146.592 144.068 146.648 144.068 146.712C144.068 146.792 144.012 146.92 143.9 147.096C143.58 147.544 143.164 148.008 142.652 148.488C142.14 148.968 141.572 149.376 140.948 149.712C140.324 150.032 139.676 150.192 139.004 150.192ZM139.028 146.664C139.236 146.68 139.468 146.68 139.724 146.664C139.996 146.632 140.26 146.576 140.516 146.496C141.172 146.304 141.644 146 141.932 145.584C142.236 145.152 142.388 144.768 142.388 144.432C142.388 144.24 142.348 144.08 142.268 143.952C142.188 143.824 142.06 143.76 141.884 143.76C141.42 143.76 141.004 143.936 140.636 144.288C140.268 144.624 139.948 145.016 139.676 145.464C139.404 145.912 139.188 146.312 139.028 146.664ZM143.757 150.36C143.693 150.36 143.693 150.288 143.757 150.144C143.837 150 143.909 149.84 143.973 149.664C144.053 149.488 144.133 149.296 144.213 149.088C144.373 148.704 144.549 148.272 144.741 147.792C144.933 147.312 145.117 146.848 145.293 146.4C145.469 145.936 145.621 145.544 145.749 145.224C145.893 144.888 145.989 144.672 146.037 144.576C145.813 144.816 145.541 145.12 145.221 145.488C144.917 145.84 144.629 146.184 144.357 146.52C144.085 146.856 143.877 147.12 143.733 147.312C143.685 147.376 143.645 147.408 143.613 147.408C143.581 147.408 143.565 147.368 143.565 147.288C143.565 147.16 143.605 147.04 143.685 146.928C143.989 146.544 144.325 146.112 144.693 145.632C145.077 145.152 145.421 144.712 145.725 144.312C146.029 143.896 146.221 143.624 146.301 143.496C146.477 143.464 146.733 143.416 147.069 143.352C147.421 143.288 147.661 143.2 147.789 143.088C147.837 143.04 147.885 143.016 147.933 143.016C147.965 143.016 147.981 143.048 147.981 143.112C147.997 143.16 147.981 143.216 147.933 143.28C147.837 143.392 147.669 143.656 147.429 144.072C147.205 144.472 146.957 144.92 146.685 145.416C146.429 145.912 146.189 146.36 145.965 146.76C146.221 146.456 146.469 146.168 146.709 145.896C146.965 145.624 147.141 145.432 147.237 145.32C147.429 145.128 147.693 144.888 148.029 144.6C148.365 144.312 148.717 144.048 149.085 143.808C149.453 143.568 149.773 143.432 150.045 143.4C150.109 143.384 150.165 143.376 150.213 143.376C150.261 143.376 150.309 143.376 150.357 143.376C150.661 143.376 150.813 143.488 150.813 143.712C150.813 143.808 150.789 143.92 150.741 144.048C150.693 144.176 150.629 144.304 150.549 144.432C150.453 144.624 150.293 144.928 150.069 145.344C149.845 145.744 149.645 146.112 149.469 146.448L150.597 145.32C150.789 145.128 151.053 144.888 151.389 144.6C151.725 144.312 152.077 144.048 152.445 143.808C152.813 143.568 153.133 143.432 153.405 143.4C153.469 143.384 153.525 143.376 153.573 143.376C153.637 143.376 153.685 143.376 153.717 143.376C154.069 143.376 154.245 143.504 154.245 143.76C154.245 143.952 154.141 144.208 153.933 144.528C153.821 144.704 153.645 145 153.405 145.416C153.165 145.832 152.917 146.288 152.661 146.784C152.421 147.264 152.213 147.712 152.037 148.128C151.861 148.544 151.773 148.848 151.773 149.04C151.773 149.264 151.885 149.376 152.109 149.376C152.317 149.376 152.581 149.256 152.901 149.016C153.237 148.76 153.573 148.456 153.909 148.104C154.261 147.752 154.565 147.416 154.821 147.096C154.933 146.968 155.037 146.84 155.133 146.712C155.245 146.568 155.309 146.488 155.325 146.472C155.357 146.504 155.373 146.56 155.373 146.64C155.373 146.752 155.333 146.864 155.253 146.976C155.189 147.072 155.125 147.16 155.061 147.24C154.757 147.64 154.405 148.056 154.005 148.488C153.621 148.92 153.197 149.288 152.733 149.592C152.269 149.88 151.773 150.048 151.245 150.096C151.085 150.112 150.925 150.08 150.765 150C150.605 149.92 150.525 149.792 150.525 149.616C150.525 149.392 150.581 149.128 150.693 148.824C150.821 148.52 150.957 148.216 151.101 147.912C151.261 147.608 151.381 147.36 151.461 147.168C151.749 146.608 152.013 146.08 152.253 145.584C152.493 145.088 152.661 144.736 152.757 144.528C152.805 144.432 152.829 144.352 152.829 144.288C152.829 144.176 152.741 144.168 152.565 144.264C152.389 144.36 152.173 144.504 151.917 144.696C151.677 144.888 151.453 145.08 151.245 145.272C151.037 145.448 150.901 145.568 150.837 145.632C150.565 145.904 150.237 146.272 149.853 146.736C149.485 147.2 149.141 147.688 148.821 148.2C148.501 148.696 148.277 149.16 148.149 149.592C147.989 149.736 147.837 149.808 147.693 149.808C147.581 149.808 147.485 149.768 147.405 149.688C147.341 149.608 147.309 149.512 147.309 149.4C147.309 149.08 147.405 148.704 147.597 148.272C147.805 147.824 147.973 147.456 148.101 147.168C148.389 146.608 148.653 146.08 148.893 145.584C149.133 145.088 149.301 144.736 149.397 144.528C149.445 144.432 149.469 144.352 149.469 144.288C149.469 144.176 149.381 144.168 149.205 144.264C149.029 144.36 148.813 144.504 148.557 144.696C148.317 144.888 148.093 145.08 147.885 145.272C147.677 145.448 147.541 145.568 147.477 145.632C147.093 146.032 146.733 146.44 146.397 146.856C146.077 147.272 145.805 147.72 145.581 148.2C145.453 148.488 145.317 148.808 145.173 149.16C145.029 149.512 144.909 149.808 144.813 150.048C144.605 150.064 144.397 150.12 144.189 150.216C143.981 150.312 143.837 150.36 143.757 150.36ZM160.309 150.192C159.653 150.192 159.197 150.064 158.941 149.808C158.685 149.552 158.557 149.24 158.557 148.872C158.557 148.408 158.677 147.912 158.917 147.384C159.173 146.856 159.413 146.408 159.637 146.04C159.893 145.656 160.237 145.256 160.669 144.84C161.101 144.424 161.573 144.072 162.085 143.784C162.597 143.496 163.093 143.352 163.573 143.352C163.989 143.352 164.277 143.456 164.437 143.664C164.597 143.856 164.677 144.088 164.677 144.36C164.677 144.856 164.525 145.264 164.221 145.584C163.933 145.904 163.573 146.168 163.141 146.376C162.709 146.568 162.293 146.728 161.893 146.856C161.653 146.92 161.373 146.984 161.053 147.048C160.733 147.112 160.429 147.144 160.141 147.144C160.029 147.432 159.941 147.712 159.877 147.984C159.813 148.256 159.781 148.504 159.781 148.728C159.781 149 159.845 149.224 159.973 149.4C160.117 149.576 160.349 149.664 160.669 149.664C160.797 149.664 160.949 149.648 161.125 149.616C161.301 149.584 161.493 149.536 161.701 149.472C162.181 149.312 162.653 149.056 163.117 148.704C163.581 148.352 164.005 147.976 164.389 147.576C164.789 147.16 165.093 146.816 165.301 146.544C165.349 146.592 165.373 146.648 165.373 146.712C165.373 146.792 165.317 146.92 165.205 147.096C164.885 147.544 164.469 148.008 163.957 148.488C163.445 148.968 162.877 149.376 162.253 149.712C161.629 150.032 160.981 150.192 160.309 150.192ZM160.333 146.664C160.541 146.68 160.773 146.68 161.029 146.664C161.301 146.632 161.565 146.576 161.821 146.496C162.477 146.304 162.949 146 163.237 145.584C163.541 145.152 163.693 144.768 163.693 144.432C163.693 144.24 163.653 144.08 163.573 143.952C163.493 143.824 163.365 143.76 163.189 143.76C162.725 143.76 162.309 143.936 161.941 144.288C161.573 144.624 161.253 145.016 160.981 145.464C160.709 145.912 160.493 146.312 160.333 146.664ZM166.358 150.384C166.07 150.384 165.766 150.344 165.446 150.264C165.126 150.184 164.838 150.056 164.582 149.88C164.342 149.688 164.182 149.432 164.102 149.112C164.086 149.064 164.078 148.992 164.078 148.896C164.078 148.672 164.126 148.424 164.222 148.152C164.334 147.88 164.47 147.688 164.63 147.576C164.694 147.544 164.742 147.544 164.774 147.576C164.822 147.608 164.83 147.64 164.798 147.672C164.782 147.72 164.758 147.784 164.726 147.864C164.694 147.928 164.67 148 164.654 148.08C164.606 148.496 164.694 148.864 164.918 149.184C165.014 149.312 165.126 149.432 165.254 149.544C165.398 149.656 165.534 149.752 165.662 149.832C165.774 149.896 165.91 149.944 166.07 149.976C166.23 149.992 166.39 150 166.55 150C166.806 150 167.054 149.968 167.294 149.904C167.534 149.84 167.71 149.736 167.822 149.592C168.03 149.336 168.134 149.048 168.134 148.728C168.134 148.488 168.07 148.232 167.942 147.96C167.814 147.688 167.614 147.4 167.342 147.096C167.166 146.904 166.998 146.696 166.838 146.472C166.678 146.248 166.574 146.008 166.526 145.752C166.51 145.704 166.494 145.656 166.478 145.608C166.478 145.56 166.478 145.512 166.478 145.464C166.27 145.768 166.054 146.056 165.83 146.328C165.622 146.584 165.438 146.808 165.278 147C165.214 147.096 165.158 147.144 165.11 147.144C165.078 147.144 165.062 147.112 165.062 147.048C165.062 146.904 165.126 146.752 165.254 146.592C165.382 146.448 165.526 146.272 165.686 146.064C165.846 145.84 165.974 145.664 166.07 145.536C166.342 145.136 166.542 144.824 166.67 144.6C166.814 144.36 166.966 144.144 167.126 143.952C167.302 143.744 167.518 143.576 167.774 143.448C168.046 143.32 168.326 143.256 168.614 143.256C168.95 143.256 169.254 143.312 169.526 143.424C169.814 143.52 169.966 143.776 169.982 144.192C169.982 144.384 169.942 144.584 169.862 144.792C169.798 144.984 169.726 145.168 169.646 145.344C169.598 145.44 169.526 145.512 169.43 145.56C169.35 145.592 169.31 145.576 169.31 145.512C169.31 145.448 169.318 145.376 169.334 145.296C169.35 145.216 169.358 145.144 169.358 145.08C169.358 144.808 169.31 144.568 169.214 144.36C169.134 144.136 169.014 143.976 168.854 143.88C168.694 143.768 168.526 143.712 168.35 143.712C168.094 143.712 167.846 143.816 167.606 144.024C167.366 144.216 167.246 144.472 167.246 144.792C167.246 144.824 167.246 144.864 167.246 144.912C167.246 144.96 167.254 145 167.27 145.032C167.334 145.288 167.526 145.576 167.846 145.896C168.166 146.216 168.414 146.496 168.59 146.736C168.894 147.152 169.046 147.576 169.046 148.008C169.046 148.44 168.918 148.84 168.662 149.208C168.422 149.56 168.094 149.84 167.678 150.048C167.278 150.272 166.838 150.384 166.358 150.384ZM171.456 150.072C171.296 150.072 171.16 150.04 171.048 149.976C170.936 149.912 170.88 149.792 170.88 149.616C170.88 149.392 170.936 149.128 171.048 148.824C171.176 148.52 171.312 148.216 171.456 147.912C171.6 147.608 171.72 147.36 171.816 147.168C171.896 147.024 172 146.8 172.128 146.496C172.272 146.176 172.416 145.848 172.56 145.512C172.72 145.16 172.848 144.864 172.944 144.624C173.056 144.384 173.112 144.264 173.112 144.264C172.968 144.424 172.776 144.648 172.536 144.936C172.312 145.224 172.064 145.528 171.792 145.848C171.536 146.152 171.296 146.44 171.072 146.712C170.864 146.984 170.712 147.184 170.616 147.312C170.568 147.376 170.528 147.408 170.496 147.408C170.464 147.408 170.448 147.368 170.448 147.288C170.448 147.16 170.488 147.04 170.568 146.928C170.76 146.688 170.992 146.4 171.264 146.064C171.536 145.712 171.808 145.36 172.08 145.008C172.368 144.656 172.616 144.344 172.824 144.072C172.696 144.072 172.528 144.08 172.32 144.096C172.128 144.112 171.952 144.136 171.792 144.168C171.632 144.184 171.544 144.192 171.528 144.192C171.448 144.192 171.456 144.128 171.552 144C171.648 143.872 171.776 143.744 171.936 143.616C172.096 143.488 172.216 143.424 172.296 143.424C172.312 143.424 172.44 143.432 172.68 143.448C172.92 143.448 173.096 143.448 173.208 143.448C173.528 143.016 173.84 142.52 174.144 141.96C174.464 141.4 174.776 140.784 175.08 140.112C175.208 140.096 175.424 140.008 175.728 139.848C176.048 139.672 176.296 139.496 176.472 139.32C176.552 139.24 176.616 139.2 176.664 139.2C176.76 139.2 176.76 139.264 176.664 139.392C176.552 139.52 176.36 139.792 176.088 140.208C175.816 140.608 175.512 141.096 175.176 141.672C174.84 142.232 174.52 142.824 174.216 143.448H176.16C176.336 143.448 176.424 143.472 176.424 143.52C176.424 143.584 176.304 143.648 176.064 143.712C175.792 143.792 175.504 143.84 175.2 143.856C174.912 143.872 174.64 143.904 174.384 143.952C174.144 144 173.968 144.104 173.856 144.264C173.76 144.376 173.624 144.616 173.448 144.984C173.272 145.352 173.08 145.776 172.872 146.256C172.68 146.72 172.512 147.192 172.368 147.672C172.224 148.136 172.136 148.528 172.104 148.848V148.944C172.104 149.072 172.144 149.176 172.224 149.256C172.304 149.336 172.384 149.376 172.464 149.376C172.672 149.376 172.936 149.248 173.256 148.992C173.592 148.736 173.936 148.432 174.288 148.08C174.64 147.712 174.944 147.376 175.2 147.072C175.312 146.944 175.408 146.824 175.488 146.712C175.584 146.6 175.64 146.528 175.656 146.496C175.688 146.56 175.704 146.608 175.704 146.64C175.704 146.736 175.672 146.84 175.608 146.952C175.56 147.064 175.504 147.16 175.44 147.24C175.136 147.64 174.768 148.064 174.336 148.512C173.904 148.944 173.44 149.312 172.944 149.616C172.464 149.92 171.968 150.072 171.456 150.072ZM178.518 150.072C178.358 150.072 178.222 150.04 178.11 149.976C177.998 149.912 177.942 149.792 177.942 149.616C177.942 149.392 177.998 149.136 178.11 148.848C178.222 148.56 178.35 148.28 178.494 148.008C178.638 147.72 178.766 147.488 178.878 147.312C178.318 147.904 177.734 148.464 177.126 148.992C176.822 149.248 176.486 149.488 176.118 149.712C175.75 149.936 175.358 150.048 174.942 150.048C174.782 150.048 174.67 150 174.606 149.904C174.542 149.792 174.51 149.664 174.51 149.52C174.51 149.44 174.518 149.384 174.534 149.352C174.614 148.728 174.814 148.08 175.134 147.408C175.454 146.736 175.846 146.104 176.31 145.512C176.774 144.92 177.246 144.44 177.726 144.072C178.27 143.656 178.87 143.448 179.526 143.448H182.286C182.366 143.448 182.406 143.48 182.406 143.544C182.406 143.672 182.334 143.736 182.19 143.736C182.03 143.736 181.87 143.84 181.71 144.048C181.55 144.24 181.43 144.4 181.35 144.528C181.238 144.704 181.062 145 180.822 145.416C180.582 145.832 180.334 146.288 180.078 146.784C179.838 147.264 179.63 147.712 179.454 148.128C179.278 148.544 179.19 148.848 179.19 149.04C179.19 149.264 179.302 149.376 179.526 149.376C179.766 149.376 180.038 149.264 180.342 149.04C180.646 148.816 180.95 148.544 181.254 148.224C181.574 147.888 181.862 147.56 182.118 147.24C182.39 146.904 182.606 146.64 182.766 146.448C182.862 146.544 182.854 146.68 182.742 146.856C182.646 147.016 182.558 147.144 182.478 147.24C182.158 147.656 181.79 148.088 181.374 148.536C180.958 148.968 180.502 149.336 180.006 149.64C179.526 149.928 179.03 150.072 178.518 150.072ZM175.926 149.232C176.118 149.232 176.382 149.096 176.718 148.824C177.07 148.536 177.446 148.184 177.846 147.768C178.246 147.336 178.622 146.888 178.974 146.424C179.326 145.944 179.614 145.512 179.838 145.128C180.078 144.728 180.198 144.424 180.198 144.216C180.198 144.04 180.142 143.92 180.03 143.856C179.934 143.792 179.806 143.76 179.646 143.76C179.39 143.76 179.11 143.856 178.806 144.048C178.518 144.224 178.286 144.4 178.11 144.576C177.918 144.752 177.686 145.032 177.414 145.416C177.158 145.784 176.902 146.192 176.646 146.64C176.39 147.088 176.174 147.52 175.998 147.936C175.822 148.352 175.734 148.688 175.734 148.944C175.734 149.136 175.798 149.232 175.926 149.232ZM182.452 150.336C182.388 150.336 182.388 150.272 182.452 150.144C182.532 150 182.604 149.84 182.668 149.664C182.748 149.488 182.828 149.296 182.908 149.088C183.068 148.704 183.244 148.272 183.436 147.792C183.628 147.312 183.812 146.848 183.988 146.4C184.164 145.936 184.316 145.544 184.444 145.224C184.588 144.888 184.684 144.672 184.732 144.576C184.508 144.816 184.236 145.12 183.916 145.488C183.612 145.84 183.324 146.184 183.052 146.52C182.78 146.856 182.572 147.12 182.428 147.312C182.38 147.376 182.34 147.408 182.308 147.408C182.276 147.408 182.26 147.368 182.26 147.288C182.26 147.16 182.3 147.04 182.38 146.928C182.684 146.544 183.02 146.112 183.388 145.632C183.772 145.152 184.116 144.712 184.42 144.312C184.724 143.896 184.916 143.624 184.996 143.496C185.172 143.464 185.428 143.416 185.764 143.352C186.116 143.288 186.356 143.2 186.484 143.088C186.532 143.04 186.58 143.016 186.628 143.016C186.66 143.016 186.676 143.048 186.676 143.112C186.692 143.16 186.676 143.216 186.628 143.28C186.532 143.376 186.388 143.584 186.196 143.904C186.02 144.224 185.82 144.592 185.596 145.008C185.372 145.424 185.156 145.824 184.948 146.208C185.108 145.968 185.316 145.688 185.572 145.368C185.844 145.032 186.14 144.712 186.46 144.408C186.78 144.088 187.1 143.824 187.42 143.616C187.756 143.408 188.068 143.304 188.356 143.304C188.564 143.304 188.74 143.352 188.884 143.448C189.028 143.528 189.14 143.68 189.22 143.904C189.268 144.016 189.292 144.144 189.292 144.288C189.292 144.56 189.22 144.824 189.076 145.08C188.948 145.32 188.852 145.504 188.788 145.632C188.772 145.68 188.716 145.728 188.62 145.776C188.524 145.808 188.484 145.792 188.5 145.728C188.516 145.648 188.524 145.568 188.524 145.488C188.54 145.408 188.548 145.32 188.548 145.224C188.548 144.952 188.492 144.704 188.38 144.48C188.284 144.256 188.1 144.144 187.828 144.144C187.572 144.144 187.26 144.304 186.892 144.624C186.524 144.944 186.156 145.312 185.788 145.728C185.324 146.272 184.956 146.792 184.684 147.288C184.412 147.768 184.188 148.24 184.012 148.704C183.916 148.96 183.82 149.216 183.724 149.472C183.628 149.712 183.556 149.904 183.508 150.048C183.3 150.064 183.092 150.112 182.884 150.192C182.676 150.288 182.532 150.336 182.452 150.336Z" fill="#FF65C5"/>
</svg>
