<svg width="350" height="78" viewBox="0 0 250 78" fill="none" xmlns="http://www.w3.org/2000/svg">
<rect width="350" height="78" fill="#1E1E1E"/>
<rect width="350" height="78" fill="white"/>
<path d="M40.328 36V34.368H42.992V19.632H46.256V34.368H48.92V36H40.328ZM36.176 25.344V21.408H40.088C39.336 21.408 38.8 21.584 38.48 21.936C38.176 22.272 38.024 22.832 38.024 23.616V25.344H36.176ZM36.176 21.408V19.632H53.096V21.408H36.176ZM51.224 23.616C51.224 22.832 51.072 22.272 50.768 21.936C50.464 21.584 49.936 21.408 49.184 21.408H53.096V25.344H51.224V23.616ZM55.037 36V34.392H57.029V25.176H55.229V23.544H59.789V27.768L60.125 27.696V34.392H62.909V36H55.037ZM59.189 28.392C59.205 27.128 59.421 26.12 59.837 25.368C60.253 24.616 60.805 24.072 61.493 23.736C62.197 23.384 62.973 23.208 63.821 23.208C64.749 23.208 65.493 23.44 66.053 23.904C66.629 24.368 66.917 24.984 66.917 25.752C66.917 26.312 66.741 26.768 66.389 27.12C66.053 27.472 65.605 27.648 65.045 27.648C64.549 27.648 64.149 27.512 63.845 27.24C63.541 26.968 63.389 26.624 63.389 26.208C63.389 25.712 63.557 25.336 63.893 25.08C64.229 24.808 64.749 24.696 65.453 24.744L65.237 25.8C65.189 25.416 64.997 25.12 64.661 24.912C64.325 24.704 63.893 24.608 63.365 24.624C62.805 24.624 62.277 24.76 61.781 25.032C61.285 25.304 60.885 25.72 60.581 26.28C60.277 26.84 60.125 27.544 60.125 28.392H59.189ZM74.9244 36.288C73.6604 36.288 72.5484 36.04 71.5884 35.544C70.6444 35.032 69.9004 34.296 69.3564 33.336C68.8284 32.36 68.5644 31.168 68.5644 29.76C68.5644 28.368 68.8284 27.192 69.3564 26.232C69.8844 25.256 70.6204 24.52 71.5644 24.024C72.5084 23.512 73.5964 23.256 74.8284 23.256L74.9244 24.96C74.2364 24.96 73.6444 25.128 73.1484 25.464C72.6684 25.784 72.2924 26.288 72.0204 26.976C71.7644 27.648 71.6364 28.512 71.6364 29.568C71.6364 30.912 71.9724 31.984 72.6444 32.784C73.3324 33.568 74.2604 33.96 75.4284 33.96C76.1324 33.96 76.7084 33.848 77.1564 33.624C77.6204 33.384 77.9804 33.088 78.2364 32.736C78.5084 32.384 78.7084 32.024 78.8364 31.656H80.8044C80.7404 32.216 80.5724 32.768 80.3004 33.312C80.0444 33.856 79.6764 34.352 79.1964 34.8C78.7324 35.248 78.1484 35.608 77.4444 35.88C76.7404 36.152 75.9004 36.288 74.9244 36.288ZM70.0044 29.808V28.2H77.8524L80.9484 28.992V29.808H70.0044ZM77.8524 28.2C77.8364 27.608 77.7164 27.072 77.4924 26.592C77.2684 26.096 76.9404 25.704 76.5084 25.416C76.0924 25.112 75.5644 24.96 74.9244 24.96L74.8284 23.256C76.1564 23.256 77.2764 23.496 78.1884 23.976C79.1004 24.456 79.7884 25.128 80.2524 25.992C80.7164 26.856 80.9484 27.856 80.9484 28.992L77.8524 28.2ZM70.8204 21.96L73.2204 18.624H76.4364L78.8364 21.96H76.5324L73.9644 19.392H75.3324L72.7164 21.96H70.8204ZM90.5786 36.192C89.6826 36.192 88.8666 36.048 88.1306 35.76C87.4106 35.472 86.8106 35.024 86.3306 34.416C85.8506 33.792 85.5466 32.976 85.4186 31.968H85.9946C86.3306 32.608 86.7226 33.112 87.1706 33.48C87.6186 33.832 88.0826 34.08 88.5626 34.224C89.0426 34.368 89.4986 34.44 89.9306 34.44C90.6186 34.44 91.1546 34.296 91.5386 34.008C91.9226 33.72 92.1146 33.328 92.1146 32.832C92.1146 32.48 92.0186 32.2 91.8266 31.992C91.6346 31.768 91.3706 31.592 91.0346 31.464C90.6986 31.336 90.3146 31.232 89.8826 31.152L88.2266 30.888C87.3306 30.728 86.5466 30.496 85.8746 30.192C85.2026 29.872 84.6826 29.448 84.3146 28.92C83.9466 28.376 83.7626 27.696 83.7626 26.88C83.7626 25.696 84.1546 24.808 84.9386 24.216C85.7226 23.624 86.7306 23.328 87.9626 23.328C88.7946 23.328 89.5626 23.464 90.2666 23.736C90.9706 24.008 91.5546 24.44 92.0186 25.032C92.4826 25.624 92.7706 26.408 92.8826 27.384H92.3066C92.0186 26.776 91.6506 26.304 91.2026 25.968C90.7706 25.632 90.3226 25.4 89.8586 25.272C89.3946 25.128 88.9706 25.056 88.5866 25.056C87.9786 25.056 87.4906 25.192 87.1226 25.464C86.7546 25.72 86.5706 26.088 86.5706 26.568C86.5706 26.904 86.6506 27.176 86.8106 27.384C86.9866 27.592 87.2346 27.76 87.5546 27.888C87.8906 28 88.2986 28.104 88.7786 28.2L90.4106 28.488C91.2586 28.616 92.0266 28.832 92.7146 29.136C93.4026 29.44 93.9466 29.856 94.3466 30.384C94.7626 30.912 94.9706 31.592 94.9706 32.424C94.9706 33.656 94.5706 34.592 93.7706 35.232C92.9706 35.872 91.9066 36.192 90.5786 36.192ZM84.0026 36V31.968H85.4186L85.9466 32.952V36H84.0026ZM92.8826 27.384L92.3546 26.424V23.52H94.3226V27.384H92.8826ZM113.721 36L107.889 24.192V19.632H109.209L115.737 32.976H115.137L121.449 19.632H121.761V23.808L115.977 36H113.721ZM103.689 36V34.368H105.825V21.264H103.737V19.632H107.889V34.368H110.193V36H103.689ZM119.457 36V34.368H121.761V19.632H127.041V21.264H124.977V34.368H127.089V36H119.457ZM135.253 36.288C133.989 36.288 132.877 36.04 131.917 35.544C130.973 35.032 130.229 34.296 129.685 33.336C129.157 32.36 128.893 31.168 128.893 29.76C128.893 28.368 129.157 27.192 129.685 26.232C130.213 25.256 130.949 24.52 131.893 24.024C132.837 23.512 133.925 23.256 135.157 23.256L135.253 24.96C134.565 24.96 133.973 25.128 133.477 25.464C132.997 25.784 132.621 26.288 132.349 26.976C132.093 27.648 131.965 28.512 131.965 29.568C131.965 30.912 132.301 31.984 132.973 32.784C133.661 33.568 134.589 33.96 135.757 33.96C136.461 33.96 137.037 33.848 137.485 33.624C137.949 33.384 138.309 33.088 138.565 32.736C138.837 32.384 139.037 32.024 139.165 31.656H141.133C141.069 32.216 140.901 32.768 140.629 33.312C140.373 33.856 140.005 34.352 139.525 34.8C139.061 35.248 138.477 35.608 137.773 35.88C137.069 36.152 136.229 36.288 135.253 36.288ZM130.333 29.808V28.2H138.181L141.277 28.992V29.808H130.333ZM138.181 28.2C138.165 27.608 138.045 27.072 137.821 26.592C137.597 26.096 137.269 25.704 136.837 25.416C136.421 25.112 135.893 24.96 135.253 24.96L135.157 23.256C136.485 23.256 137.605 23.496 138.517 23.976C139.429 24.456 140.117 25.128 140.581 25.992C141.045 26.856 141.277 27.856 141.277 28.992L138.181 28.2ZM152.322 36V34.392H153.858V27.696C153.858 26.928 153.65 26.368 153.234 26.016C152.818 25.664 152.242 25.488 151.506 25.488C151.01 25.488 150.538 25.6 150.09 25.824C149.658 26.032 149.306 26.384 149.034 26.88C148.762 27.36 148.626 28 148.626 28.8H147.978C147.978 27.616 148.138 26.616 148.458 25.8C148.794 24.984 149.306 24.376 149.994 23.976C150.682 23.56 151.586 23.352 152.706 23.352C153.954 23.352 154.978 23.688 155.778 24.36C156.578 25.032 156.978 26.112 156.978 27.6V34.392H158.586V36H152.322ZM143.49 36V34.392H145.482V25.152H143.682V23.544H148.242V27.864L148.626 27.816V34.392H150.162V36H143.49ZM160.248 36V34.392H162.24V25.152H160.44V23.544H165.336V34.392H167.088V36H160.248ZM163.656 22.152C163.064 22.152 162.576 21.984 162.192 21.648C161.824 21.312 161.64 20.864 161.64 20.304C161.64 19.744 161.824 19.304 162.192 18.984C162.576 18.664 163.064 18.504 163.656 18.504C164.248 18.504 164.728 18.664 165.096 18.984C165.464 19.304 165.648 19.752 165.648 20.328C165.648 20.872 165.464 21.312 165.096 21.648C164.728 21.984 164.248 22.152 163.656 22.152ZM177.611 36V34.392H179.147V27.696C179.147 26.928 178.939 26.368 178.523 26.016C178.107 25.664 177.531 25.488 176.795 25.488C176.299 25.488 175.827 25.6 175.379 25.824C174.947 26.032 174.595 26.384 174.323 26.88C174.051 27.36 173.915 28 173.915 28.8H173.267C173.267 27.616 173.427 26.616 173.747 25.8C174.083 24.984 174.595 24.376 175.283 23.976C175.971 23.56 176.875 23.352 177.995 23.352C179.243 23.352 180.267 23.688 181.067 24.36C181.867 25.032 182.267 26.112 182.267 27.6V34.392H183.875V36H177.611ZM168.779 36V34.392H170.771V25.152H168.971V23.544H173.531V27.864L173.915 27.816V34.392H175.451V36H168.779ZM188.706 27.888C188.194 27.888 187.738 27.752 187.338 27.48C186.954 27.192 186.762 26.752 186.762 26.16C186.762 25.536 187.018 25.016 187.53 24.6C188.058 24.168 188.738 23.848 189.57 23.64C190.418 23.416 191.306 23.304 192.234 23.304C193.77 23.304 194.954 23.616 195.786 24.24C196.634 24.864 197.05 25.8 197.034 27.048L194.106 26.64C194.106 26.032 193.882 25.576 193.434 25.272C193.002 24.968 192.386 24.816 191.586 24.816C191.074 24.816 190.586 24.88 190.122 25.008C189.658 25.12 189.274 25.304 188.97 25.56C188.666 25.816 188.49 26.168 188.442 26.616L188.466 25.2C189.042 25.216 189.498 25.336 189.834 25.56C190.17 25.768 190.33 26.096 190.314 26.544C190.298 26.944 190.146 27.272 189.858 27.528C189.586 27.768 189.202 27.888 188.706 27.888ZM197.898 36.264C196.762 36.264 195.898 35.96 195.306 35.352C194.714 34.728 194.418 33.856 194.418 32.736V32.088H194.082V28.848H193.962L194.106 27.672V26.64L197.034 27.048V33C197.034 33.384 197.13 33.696 197.322 33.936C197.514 34.176 197.794 34.296 198.162 34.296C198.53 34.296 198.81 34.176 199.002 33.936C199.194 33.696 199.29 33.384 199.29 33V29.448H201.258V32.784C201.258 33.872 200.97 34.728 200.394 35.352C199.834 35.96 199.002 36.264 197.898 36.264ZM189.954 36.24C188.722 36.24 187.714 35.944 186.93 35.352C186.162 34.76 185.778 33.944 185.778 32.904C185.778 32.152 185.938 31.536 186.258 31.056C186.594 30.576 187.05 30.192 187.626 29.904C188.202 29.6 188.866 29.368 189.618 29.208L191.73 28.704C192.21 28.608 192.626 28.48 192.978 28.32C193.33 28.16 193.602 27.944 193.794 27.672C194.002 27.4 194.106 27.056 194.106 26.64L194.178 28.848H194.082C193.938 29.152 193.698 29.408 193.362 29.616C193.042 29.808 192.634 29.968 192.138 30.096L191.274 30.288C190.842 30.416 190.45 30.56 190.098 30.72C189.762 30.88 189.49 31.08 189.282 31.32C189.09 31.56 188.994 31.88 188.994 32.28C188.994 32.84 189.194 33.272 189.594 33.576C189.994 33.864 190.53 34.008 191.202 34.008C191.698 34.008 192.162 33.904 192.594 33.696C193.042 33.472 193.402 33.12 193.674 32.64C193.946 32.144 194.082 31.488 194.082 30.672L194.85 30.72C194.85 32.048 194.626 33.12 194.178 33.936C193.746 34.752 193.162 35.344 192.426 35.712C191.69 36.064 190.866 36.24 189.954 36.24ZM210.063 36.192C209.167 36.192 208.351 36.048 207.615 35.76C206.895 35.472 206.295 35.024 205.815 34.416C205.335 33.792 205.031 32.976 204.903 31.968H205.479C205.815 32.608 206.207 33.112 206.655 33.48C207.103 33.832 207.567 34.08 208.047 34.224C208.527 34.368 208.983 34.44 209.415 34.44C210.103 34.44 210.639 34.296 211.023 34.008C211.407 33.72 211.599 33.328 211.599 32.832C211.599 32.48 211.503 32.2 211.311 31.992C211.119 31.768 210.855 31.592 210.519 31.464C210.183 31.336 209.799 31.232 209.367 31.152L207.711 30.888C206.815 30.728 206.031 30.496 205.359 30.192C204.687 29.872 204.167 29.448 203.799 28.92C203.431 28.376 203.247 27.696 203.247 26.88C203.247 25.696 203.639 24.808 204.423 24.216C205.207 23.624 206.215 23.328 207.447 23.328C208.279 23.328 209.047 23.464 209.751 23.736C210.455 24.008 211.039 24.44 211.503 25.032C211.967 25.624 212.255 26.408 212.367 27.384H211.791C211.503 26.776 211.135 26.304 210.687 25.968C210.255 25.632 209.807 25.4 209.343 25.272C208.879 25.128 208.455 25.056 208.071 25.056C207.463 25.056 206.975 25.192 206.607 25.464C206.239 25.72 206.055 26.088 206.055 26.568C206.055 26.904 206.135 27.176 206.295 27.384C206.471 27.592 206.719 27.76 207.039 27.888C207.375 28 207.783 28.104 208.263 28.2L209.895 28.488C210.743 28.616 211.511 28.832 212.199 29.136C212.887 29.44 213.431 29.856 213.831 30.384C214.247 30.912 214.455 31.592 214.455 32.424C214.455 33.656 214.055 34.592 213.255 35.232C212.455 35.872 211.391 36.192 210.063 36.192ZM203.487 36V31.968H204.903L205.431 32.952V36H203.487ZM212.367 27.384L211.839 26.424V23.52H213.807V27.384H212.367Z" fill="#FF65C5"/>
<path d="M66.952 55.696C66.104 55.696 65.288 55.568 64.504 55.312C63.736 55.072 63.112 54.664 62.632 54.088C62.152 53.512 61.912 52.736 61.912 51.76C61.912 50.72 62.112 49.704 62.512 48.712C62.912 47.72 63.448 46.8 64.12 45.952C64.792 45.088 65.544 44.344 66.376 43.72C67.112 43.16 67.96 42.704 68.92 42.352C69.896 42 70.864 41.824 71.824 41.824C72.224 41.824 72.6 41.856 72.952 41.92C73.304 41.968 73.664 42.08 74.032 42.256C74.352 42.4 74.608 42.584 74.8 42.808C74.992 43.016 75.088 43.256 75.088 43.528C75.088 43.56 75.088 43.6 75.088 43.648C75.088 43.696 75.08 43.736 75.064 43.768C75 44.024 74.848 44.32 74.608 44.656C74.384 44.976 74.208 45.312 74.08 45.664C74.064 45.728 73.976 45.784 73.816 45.832C73.656 45.864 73.592 45.848 73.624 45.784C73.752 45.576 73.848 45.32 73.912 45.016C73.992 44.712 74.032 44.408 74.032 44.104C74.032 43.88 74.008 43.672 73.96 43.48C73.928 43.272 73.864 43.096 73.768 42.952C73.608 42.664 73.36 42.464 73.024 42.352C72.688 42.24 72.328 42.184 71.944 42.184C71.576 42.184 71.208 42.224 70.84 42.304C70.472 42.384 70.152 42.472 69.88 42.568C68.952 42.904 68.064 43.432 67.216 44.152C66.464 44.808 65.792 45.568 65.2 46.432C64.624 47.296 64.168 48.184 63.832 49.096C63.496 50.008 63.328 50.88 63.328 51.712C63.328 52.56 63.512 53.232 63.88 53.728C64.248 54.224 64.728 54.576 65.32 54.784C65.912 54.992 66.552 55.096 67.24 55.096C67.848 55.096 68.448 55.032 69.04 54.904C69.648 54.776 70.2 54.616 70.696 54.424C71.544 54.104 72.304 53.712 72.976 53.248C73.664 52.784 74.304 52.184 74.896 51.448C74.976 51.368 75.032 51.328 75.064 51.328C75.112 51.328 75.136 51.36 75.136 51.424C75.136 51.552 75.072 51.704 74.944 51.88C74.4 52.616 73.784 53.232 73.096 53.728C72.408 54.224 71.672 54.632 70.888 54.952C70.36 55.16 69.744 55.336 69.04 55.48C68.352 55.624 67.656 55.696 66.952 55.696ZM74.8563 55.048C74.6003 55.048 74.3683 55 74.1603 54.904C73.9683 54.792 73.8723 54.56 73.8723 54.208C73.8723 53.648 74.0163 53.088 74.3043 52.528C74.5923 51.952 74.8883 51.448 75.1923 51.016C75.4643 50.648 75.7683 50.304 76.1043 49.984C76.4563 49.648 76.8323 49.36 77.2323 49.12C77.4883 48.96 77.8323 48.792 78.2643 48.616C78.7123 48.424 79.0883 48.328 79.3923 48.328C79.6483 48.328 79.8723 48.4 80.0643 48.544C80.2563 48.672 80.3523 48.912 80.3523 49.264C80.3523 49.808 80.2083 50.368 79.9203 50.944C79.6483 51.504 79.3603 52 79.0563 52.432C78.9123 52.624 78.7683 52.808 78.6243 52.984C78.4803 53.144 78.3203 53.312 78.1443 53.488C78.7363 53.488 79.2803 53.32 79.7763 52.984C80.2723 52.632 80.7043 52.208 81.0723 51.712L81.1203 51.664C81.1683 51.664 81.1923 51.712 81.1923 51.808C81.1923 51.92 81.1603 52.024 81.0963 52.12C80.7763 52.568 80.3763 52.968 79.8963 53.32C79.4163 53.656 78.8723 53.824 78.2643 53.824C78.2003 53.824 78.1363 53.824 78.0723 53.824C78.0083 53.824 77.9443 53.816 77.8803 53.8C76.9843 54.632 75.9763 55.048 74.8563 55.048ZM75.4803 54.64C75.7043 54.64 75.9443 54.56 76.2003 54.4C76.4723 54.24 76.6803 54.088 76.8242 53.944C77.0963 53.672 77.3443 53.384 77.5683 53.08C77.7923 52.76 78.0003 52.44 78.1923 52.12C78.4163 51.736 78.6403 51.28 78.8643 50.752C79.0883 50.224 79.2003 49.728 79.2003 49.264C79.2003 48.896 79.0723 48.712 78.8163 48.712C78.6083 48.712 78.3523 48.8 78.0483 48.976C77.7603 49.152 77.5443 49.312 77.4003 49.456C76.8563 50.016 76.4003 50.624 76.0323 51.28C75.8243 51.648 75.6003 52.08 75.3603 52.576C75.1203 53.072 75.0003 53.528 75.0003 53.944C75.0003 54.008 75.0003 54.072 75.0003 54.136C75.0163 54.184 75.0323 54.24 75.0483 54.304C75.1123 54.528 75.2563 54.64 75.4803 54.64ZM80.9678 55.36C80.9038 55.36 80.9038 55.288 80.9678 55.144C81.0478 55 81.1198 54.84 81.1838 54.664C81.2638 54.488 81.3438 54.296 81.4238 54.088C81.5838 53.704 81.7598 53.272 81.9518 52.792C82.1438 52.312 82.3278 51.848 82.5038 51.4C82.6798 50.936 82.8318 50.544 82.9598 50.224C83.1038 49.888 83.1998 49.672 83.2478 49.576C83.0238 49.816 82.7518 50.12 82.4318 50.488C82.1278 50.84 81.8398 51.184 81.5678 51.52C81.2958 51.856 81.0878 52.12 80.9438 52.312C80.8958 52.376 80.8558 52.408 80.8238 52.408C80.7918 52.408 80.7758 52.368 80.7758 52.288C80.7758 52.16 80.8158 52.04 80.8958 51.928C81.1998 51.544 81.5358 51.112 81.9038 50.632C82.2878 50.152 82.6318 49.712 82.9358 49.312C83.2398 48.896 83.4318 48.624 83.5118 48.496C83.6878 48.464 83.9438 48.416 84.2798 48.352C84.6318 48.288 84.8718 48.2 84.9998 48.088C85.0478 48.04 85.0958 48.016 85.1438 48.016C85.1758 48.016 85.1918 48.048 85.1918 48.112C85.2078 48.16 85.1918 48.216 85.1438 48.28C85.0478 48.392 84.8798 48.656 84.6398 49.072C84.4158 49.472 84.1678 49.92 83.8958 50.416C83.6398 50.912 83.3998 51.36 83.1758 51.76C83.3678 51.504 83.5758 51.256 83.7998 51.016C84.0238 50.776 84.2398 50.544 84.4478 50.32C84.6398 50.128 84.9038 49.888 85.2398 49.6C85.5758 49.312 85.9278 49.048 86.2958 48.808C86.6638 48.568 86.9838 48.432 87.2558 48.4C87.3198 48.384 87.3758 48.376 87.4238 48.376C87.4878 48.376 87.5358 48.376 87.5678 48.376C87.9198 48.376 88.0958 48.504 88.0958 48.76C88.0958 48.952 87.9918 49.208 87.7838 49.528C87.6718 49.704 87.4958 50 87.2558 50.416C87.0318 50.816 86.7998 51.256 86.5598 51.736C86.3358 52.2 86.1358 52.64 85.9598 53.056C85.7998 53.456 85.7198 53.752 85.7198 53.944C85.7198 54.168 85.8318 54.28 86.0558 54.28C86.3278 54.28 86.6238 54.144 86.9438 53.872C87.2798 53.6 87.6398 53.256 88.0238 52.84C88.4078 52.408 88.7918 51.952 89.1758 51.472C89.2078 51.504 89.2238 51.56 89.2238 51.64C89.2238 51.752 89.1838 51.864 89.1038 51.976C89.0398 52.072 88.9758 52.16 88.9118 52.24C88.7518 52.448 88.5358 52.712 88.2638 53.032C88.0078 53.336 87.7438 53.64 87.4718 53.944C87.1998 54.232 86.9518 54.464 86.7278 54.64C86.5678 54.752 86.3598 54.872 86.1038 55C85.8478 55.128 85.5918 55.192 85.3358 55.192C85.0478 55.192 84.8478 55.12 84.7358 54.976C84.6238 54.816 84.5678 54.624 84.5678 54.4C84.5678 54.144 84.6158 53.872 84.7118 53.584C84.8078 53.296 84.9118 53.024 85.0238 52.768C85.1518 52.496 85.2478 52.296 85.3118 52.168C85.5998 51.608 85.8638 51.08 86.1038 50.584C86.3438 50.088 86.5118 49.736 86.6078 49.528C86.6558 49.432 86.6798 49.352 86.6798 49.288C86.6798 49.176 86.5918 49.168 86.4158 49.264C86.2398 49.36 86.0238 49.504 85.7678 49.696C85.5278 49.888 85.3038 50.08 85.0958 50.272C84.8878 50.448 84.7518 50.568 84.6878 50.632C84.0958 51.256 83.5758 51.952 83.1278 52.72C82.6958 53.472 82.3278 54.248 82.0238 55.048C81.8158 55.064 81.6078 55.12 81.3998 55.216C81.1918 55.312 81.0478 55.36 80.9678 55.36ZM83.1777 60.424C82.5537 60.424 82.0337 60.32 81.6177 60.112C81.1857 59.92 80.8977 59.624 80.7537 59.224C80.7377 59.176 80.7297 59.128 80.7297 59.08C80.7137 59.032 80.7057 58.976 80.7057 58.912C80.7057 58.672 80.7617 58.4 80.8737 58.096C80.9857 57.808 81.1057 57.496 81.2337 57.16C81.2817 57.064 81.3377 57.016 81.4017 57.016C81.5137 57.016 81.5457 57.096 81.4977 57.256C81.3857 57.496 81.3297 57.752 81.3297 58.024C81.3297 58.584 81.5777 59.032 82.0737 59.368C82.5537 59.72 83.1057 59.896 83.7297 59.896C84.2097 59.896 84.6737 59.784 85.1217 59.56C85.8737 59.176 86.4897 58.648 86.9697 57.976C87.4497 57.304 87.8737 56.624 88.2417 55.936C88.8017 54.864 89.2817 53.744 89.6817 52.576C90.0977 51.392 90.5377 50.224 91.0017 49.072H90.4497C90.3697 49.072 90.2817 49.08 90.1857 49.096C90.0897 49.112 90.0017 49.128 89.9217 49.144L89.8737 49.12C89.9057 48.944 90.0577 48.792 90.3297 48.664C90.6177 48.52 90.8417 48.448 91.0017 48.448H91.2897C91.5297 47.872 91.8097 47.24 92.1297 46.552C92.4657 45.864 92.8257 45.176 93.2097 44.488C93.5937 43.784 94.0097 43.144 94.4577 42.568C94.9217 41.992 95.4017 41.536 95.8977 41.2C96.7137 40.624 97.6177 40.336 98.6097 40.336C98.8017 40.336 98.9857 40.4 99.1617 40.528C99.3537 40.64 99.4417 40.816 99.4257 41.056L99.3537 41.92C99.3537 41.952 99.3297 41.976 99.2817 41.992C99.2337 42.008 99.2017 42 99.1857 41.968C99.1217 41.648 98.9457 41.416 98.6577 41.272C98.3857 41.112 98.0657 41.032 97.6977 41.032C97.1057 41.032 96.5617 41.224 96.0657 41.608C95.5857 41.992 95.0657 42.704 94.5057 43.744C94.2977 44.144 94.0657 44.616 93.8097 45.16C93.5697 45.704 93.3297 46.264 93.0897 46.84C92.8497 47.416 92.6177 47.952 92.3937 48.448H94.1217C94.2337 48.448 94.3457 48.448 94.4577 48.448C94.5857 48.432 94.7057 48.416 94.8177 48.4C94.8177 48.464 94.7697 48.528 94.6737 48.592C94.5937 48.64 94.5217 48.68 94.4577 48.712C94.0577 48.92 93.6817 49.04 93.3297 49.072C92.9777 49.088 92.5777 49.088 92.1297 49.072C91.7777 49.952 91.4417 50.792 91.1217 51.592C90.8177 52.376 90.4817 53.144 90.1137 53.896C89.8097 54.568 89.4337 55.28 88.9857 56.032C88.5377 56.784 88.0257 57.496 87.4497 58.168C86.8737 58.84 86.2337 59.384 85.5297 59.8C84.8097 60.216 84.0257 60.424 83.1777 60.424ZM93.4891 55.048C93.2331 55.048 93.0011 55 92.7931 54.904C92.6011 54.792 92.5051 54.56 92.5051 54.208C92.5051 53.648 92.6491 53.088 92.9371 52.528C93.2251 51.952 93.5211 51.448 93.8251 51.016C94.0971 50.648 94.4011 50.304 94.7371 49.984C95.0891 49.648 95.4651 49.36 95.8651 49.12C96.1211 48.96 96.4651 48.792 96.8971 48.616C97.3451 48.424 97.7211 48.328 98.0251 48.328C98.2811 48.328 98.5051 48.4 98.6971 48.544C98.8891 48.672 98.9851 48.912 98.9851 49.264C98.9851 49.808 98.8411 50.368 98.5531 50.944C98.2811 51.504 97.9931 52 97.6891 52.432C97.5451 52.624 97.4011 52.808 97.2571 52.984C97.1131 53.144 96.9531 53.312 96.7771 53.488C97.3691 53.488 97.9131 53.32 98.4091 52.984C98.9051 52.632 99.3371 52.208 99.7051 51.712L99.7531 51.664C99.8011 51.664 99.8251 51.712 99.8251 51.808C99.8251 51.92 99.7931 52.024 99.7291 52.12C99.4091 52.568 99.0091 52.968 98.5291 53.32C98.0491 53.656 97.5051 53.824 96.8971 53.824C96.8331 53.824 96.7691 53.824 96.7051 53.824C96.6411 53.824 96.5771 53.816 96.5131 53.8C95.6171 54.632 94.6091 55.048 93.4891 55.048ZM94.1131 54.64C94.3371 54.64 94.5771 54.56 94.8331 54.4C95.1051 54.24 95.3131 54.088 95.4571 53.944C95.7291 53.672 95.9771 53.384 96.2011 53.08C96.4251 52.76 96.6331 52.44 96.8251 52.12C97.0491 51.736 97.2731 51.28 97.4971 50.752C97.7211 50.224 97.8331 49.728 97.8331 49.264C97.8331 48.896 97.7051 48.712 97.4491 48.712C97.2411 48.712 96.9851 48.8 96.6811 48.976C96.3931 49.152 96.1771 49.312 96.0331 49.456C95.4891 50.016 95.0331 50.624 94.6651 51.28C94.4571 51.648 94.2331 52.08 93.9931 52.576C93.7531 53.072 93.6331 53.528 93.6331 53.944C93.6331 54.008 93.6331 54.072 93.6331 54.136C93.6491 54.184 93.6651 54.24 93.6811 54.304C93.7451 54.528 93.8891 54.64 94.1131 54.64ZM99.6006 55.336C99.5366 55.336 99.5366 55.272 99.6006 55.144C99.6806 55 99.7526 54.84 99.8166 54.664C99.8966 54.488 99.9766 54.296 100.057 54.088C100.217 53.704 100.393 53.272 100.585 52.792C100.777 52.312 100.961 51.848 101.137 51.4C101.313 50.936 101.465 50.544 101.593 50.224C101.737 49.888 101.833 49.672 101.881 49.576C101.657 49.816 101.385 50.12 101.065 50.488C100.761 50.84 100.473 51.184 100.201 51.52C99.9286 51.856 99.7206 52.12 99.5766 52.312C99.5286 52.376 99.4886 52.408 99.4566 52.408C99.4246 52.408 99.4086 52.368 99.4086 52.288C99.4086 52.16 99.4486 52.04 99.5286 51.928C99.8326 51.544 100.169 51.112 100.537 50.632C100.921 50.152 101.265 49.712 101.569 49.312C101.873 48.896 102.065 48.624 102.145 48.496C102.321 48.464 102.577 48.416 102.913 48.352C103.265 48.288 103.505 48.2 103.633 48.088C103.681 48.04 103.729 48.016 103.777 48.016C103.809 48.016 103.825 48.048 103.825 48.112C103.841 48.16 103.825 48.216 103.777 48.28C103.681 48.376 103.537 48.584 103.345 48.904C103.169 49.224 102.969 49.592 102.745 50.008C102.521 50.424 102.305 50.824 102.097 51.208C102.257 50.968 102.465 50.688 102.721 50.368C102.993 50.032 103.289 49.712 103.609 49.408C103.929 49.088 104.249 48.824 104.569 48.616C104.905 48.408 105.217 48.304 105.505 48.304C105.713 48.304 105.889 48.352 106.033 48.448C106.177 48.528 106.289 48.68 106.369 48.904C106.417 49.016 106.441 49.144 106.441 49.288C106.441 49.56 106.369 49.824 106.225 50.08C106.097 50.32 106.001 50.504 105.937 50.632C105.921 50.68 105.865 50.728 105.769 50.776C105.673 50.808 105.633 50.792 105.649 50.728C105.665 50.648 105.673 50.568 105.673 50.488C105.689 50.408 105.697 50.32 105.697 50.224C105.697 49.952 105.641 49.704 105.529 49.48C105.433 49.256 105.249 49.144 104.977 49.144C104.721 49.144 104.409 49.304 104.041 49.624C103.673 49.944 103.305 50.312 102.937 50.728C102.473 51.272 102.105 51.792 101.833 52.288C101.561 52.768 101.337 53.24 101.161 53.704C101.065 53.96 100.969 54.216 100.873 54.472C100.777 54.712 100.705 54.904 100.657 55.048C100.449 55.064 100.241 55.112 100.033 55.192C99.8246 55.288 99.6806 55.336 99.6006 55.336ZM106.956 55.072C106.796 55.072 106.66 55.04 106.548 54.976C106.436 54.912 106.38 54.792 106.38 54.616C106.38 54.392 106.436 54.128 106.548 53.824C106.676 53.52 106.812 53.216 106.956 52.912C107.1 52.608 107.22 52.36 107.316 52.168C107.396 52.024 107.5 51.8 107.628 51.496C107.772 51.176 107.916 50.848 108.06 50.512C108.22 50.16 108.348 49.864 108.444 49.624C108.556 49.384 108.612 49.264 108.612 49.264C108.468 49.424 108.276 49.648 108.036 49.936C107.812 50.224 107.564 50.528 107.292 50.848C107.036 51.152 106.796 51.44 106.572 51.712C106.364 51.984 106.212 52.184 106.116 52.312C106.068 52.376 106.028 52.408 105.996 52.408C105.964 52.408 105.948 52.368 105.948 52.288C105.948 52.16 105.988 52.04 106.068 51.928C106.26 51.688 106.492 51.4 106.764 51.064C107.036 50.712 107.308 50.36 107.58 50.008C107.868 49.656 108.116 49.344 108.324 49.072C108.196 49.072 108.028 49.08 107.82 49.096C107.628 49.112 107.452 49.136 107.292 49.168C107.132 49.184 107.044 49.192 107.028 49.192C106.948 49.192 106.956 49.128 107.052 49C107.148 48.872 107.276 48.744 107.436 48.616C107.596 48.488 107.716 48.424 107.796 48.424C107.812 48.424 107.94 48.432 108.18 48.448C108.42 48.448 108.596 48.448 108.708 48.448C109.028 48.016 109.34 47.52 109.644 46.96C109.964 46.4 110.276 45.784 110.58 45.112C110.708 45.096 110.924 45.008 111.228 44.848C111.548 44.672 111.796 44.496 111.972 44.32C112.052 44.24 112.116 44.2 112.164 44.2C112.26 44.2 112.26 44.264 112.164 44.392C112.052 44.52 111.86 44.792 111.588 45.208C111.316 45.608 111.012 46.096 110.676 46.672C110.34 47.232 110.02 47.824 109.716 48.448H111.66C111.836 48.448 111.924 48.472 111.924 48.52C111.924 48.584 111.804 48.648 111.564 48.712C111.292 48.792 111.004 48.84 110.7 48.856C110.412 48.872 110.14 48.904 109.884 48.952C109.644 49 109.468 49.104 109.356 49.264C109.26 49.376 109.124 49.616 108.948 49.984C108.772 50.352 108.58 50.776 108.372 51.256C108.18 51.72 108.012 52.192 107.868 52.672C107.724 53.136 107.636 53.528 107.604 53.848V53.944C107.604 54.072 107.644 54.176 107.724 54.256C107.804 54.336 107.884 54.376 107.964 54.376C108.172 54.376 108.436 54.248 108.756 53.992C109.092 53.736 109.436 53.432 109.788 53.08C110.14 52.712 110.444 52.376 110.7 52.072C110.812 51.944 110.908 51.824 110.988 51.712C111.084 51.6 111.14 51.528 111.156 51.496C111.188 51.56 111.204 51.608 111.204 51.64C111.204 51.736 111.172 51.84 111.108 51.952C111.06 52.064 111.004 52.16 110.94 52.24C110.636 52.64 110.268 53.064 109.836 53.512C109.404 53.944 108.94 54.312 108.444 54.616C107.964 54.92 107.468 55.072 106.956 55.072ZM111.138 55.048C110.882 55.048 110.65 55 110.442 54.904C110.25 54.792 110.154 54.56 110.154 54.208C110.154 53.648 110.298 53.088 110.586 52.528C110.874 51.952 111.17 51.448 111.474 51.016C111.746 50.648 112.05 50.304 112.386 49.984C112.738 49.648 113.114 49.36 113.514 49.12C113.77 48.96 114.114 48.792 114.546 48.616C114.994 48.424 115.37 48.328 115.674 48.328C115.93 48.328 116.154 48.4 116.346 48.544C116.538 48.672 116.634 48.912 116.634 49.264C116.634 49.808 116.49 50.368 116.202 50.944C115.93 51.504 115.642 52 115.338 52.432C115.194 52.624 115.05 52.808 114.906 52.984C114.762 53.144 114.602 53.312 114.426 53.488C115.018 53.488 115.562 53.32 116.058 52.984C116.554 52.632 116.986 52.208 117.354 51.712L117.402 51.664C117.45 51.664 117.474 51.712 117.474 51.808C117.474 51.92 117.442 52.024 117.378 52.12C117.058 52.568 116.658 52.968 116.178 53.32C115.698 53.656 115.154 53.824 114.546 53.824C114.482 53.824 114.418 53.824 114.354 53.824C114.29 53.824 114.226 53.816 114.162 53.8C113.266 54.632 112.258 55.048 111.138 55.048ZM111.762 54.64C111.986 54.64 112.226 54.56 112.482 54.4C112.754 54.24 112.962 54.088 113.105 53.944C113.378 53.672 113.626 53.384 113.85 53.08C114.074 52.76 114.282 52.44 114.474 52.12C114.698 51.736 114.922 51.28 115.146 50.752C115.37 50.224 115.482 49.728 115.482 49.264C115.482 48.896 115.354 48.712 115.098 48.712C114.89 48.712 114.634 48.8 114.33 48.976C114.042 49.152 113.826 49.312 113.682 49.456C113.138 50.016 112.682 50.624 112.314 51.28C112.106 51.648 111.882 52.08 111.642 52.576C111.402 53.072 111.282 53.528 111.282 53.944C111.282 54.008 111.282 54.072 111.282 54.136C111.298 54.184 111.314 54.24 111.33 54.304C111.394 54.528 111.538 54.64 111.762 54.64ZM122.528 55.192C121.872 55.192 121.416 55.064 121.16 54.808C120.904 54.552 120.776 54.24 120.776 53.872C120.776 53.408 120.896 52.912 121.136 52.384C121.392 51.856 121.632 51.408 121.856 51.04C122.112 50.656 122.456 50.256 122.888 49.84C123.32 49.424 123.792 49.072 124.304 48.784C124.816 48.496 125.312 48.352 125.792 48.352C126.208 48.352 126.496 48.456 126.656 48.664C126.816 48.856 126.896 49.088 126.896 49.36C126.896 49.856 126.744 50.264 126.44 50.584C126.152 50.904 125.792 51.168 125.36 51.376C124.928 51.568 124.512 51.728 124.112 51.856C123.872 51.92 123.592 51.984 123.272 52.048C122.952 52.112 122.648 52.144 122.36 52.144C122.248 52.432 122.16 52.712 122.096 52.984C122.032 53.256 122 53.504 122 53.728C122 54 122.064 54.224 122.192 54.4C122.336 54.576 122.568 54.664 122.888 54.664C123.016 54.664 123.168 54.648 123.344 54.616C123.52 54.584 123.712 54.536 123.92 54.472C124.4 54.312 124.872 54.056 125.336 53.704C125.8 53.352 126.224 52.976 126.608 52.576C127.008 52.16 127.312 51.816 127.52 51.544C127.568 51.592 127.592 51.648 127.592 51.712C127.592 51.792 127.536 51.92 127.424 52.096C127.104 52.544 126.688 53.008 126.176 53.488C125.664 53.968 125.096 54.376 124.472 54.712C123.848 55.032 123.2 55.192 122.528 55.192ZM122.552 51.664C122.76 51.68 122.992 51.68 123.248 51.664C123.52 51.632 123.784 51.576 124.04 51.496C124.696 51.304 125.168 51 125.456 50.584C125.76 50.152 125.912 49.768 125.912 49.432C125.912 49.24 125.872 49.08 125.792 48.952C125.712 48.824 125.584 48.76 125.408 48.76C124.944 48.76 124.528 48.936 124.16 49.288C123.792 49.624 123.472 50.016 123.2 50.464C122.928 50.912 122.712 51.312 122.552 51.664ZM132.199 55.216C131.991 55.216 131.743 55.176 131.455 55.096C131.167 55.032 131.023 54.856 131.023 54.568C131.023 54.456 131.047 54.328 131.095 54.184C131.143 54.04 131.191 53.912 131.239 53.8C131.399 53.384 131.567 52.96 131.743 52.528C131.919 52.096 132.103 51.656 132.295 51.208C132.087 51.448 131.887 51.672 131.695 51.88C131.519 52.072 131.391 52.216 131.311 52.312C131.263 52.376 131.223 52.408 131.191 52.408C131.159 52.408 131.143 52.368 131.143 52.288C131.143 52.16 131.183 52.04 131.263 51.928C131.487 51.64 131.743 51.336 132.031 51.016C132.319 50.696 132.599 50.36 132.871 50.008C133.543 48.6 134.295 47.24 135.127 45.928C135.959 44.6 136.895 43.424 137.935 42.4C138.255 42.096 138.615 41.784 139.015 41.464C139.415 41.144 139.839 40.872 140.287 40.648C140.751 40.424 141.207 40.312 141.655 40.312C141.895 40.312 142.111 40.376 142.303 40.504C142.511 40.632 142.623 40.832 142.639 41.104V41.8C142.639 41.864 142.591 41.896 142.495 41.896C142.447 41.896 142.423 41.88 142.423 41.848C142.423 41.592 142.311 41.424 142.087 41.344C141.863 41.248 141.639 41.2 141.415 41.2C140.535 41.2 139.743 41.432 139.039 41.896C138.335 42.344 137.711 42.936 137.167 43.672C136.623 44.392 136.135 45.192 135.703 46.072C135.271 46.936 134.879 47.792 134.527 48.64C134.191 49.472 133.871 50.216 133.567 50.872C133.567 50.872 133.567 50.888 133.567 50.92C133.567 50.952 133.575 50.968 133.591 50.968C133.607 50.968 133.735 50.848 133.975 50.608C134.231 50.352 134.543 50.056 134.911 49.72C135.295 49.384 135.695 49.096 136.111 48.856C136.527 48.6 136.911 48.472 137.263 48.472C137.439 48.472 137.551 48.536 137.599 48.664C137.647 48.776 137.671 48.904 137.671 49.048V49.264C137.591 49.856 137.383 50.496 137.047 51.184C136.727 51.872 136.311 52.528 135.799 53.152C135.303 53.76 134.743 54.256 134.119 54.64C133.511 55.024 132.871 55.216 132.199 55.216ZM132.583 54.808C132.839 54.808 133.111 54.712 133.399 54.52C133.703 54.312 133.935 54.128 134.095 53.968C134.287 53.792 134.519 53.52 134.791 53.152C135.063 52.768 135.327 52.352 135.583 51.904C135.839 51.456 136.055 51.024 136.231 50.608C136.407 50.192 136.495 49.856 136.495 49.6C136.495 49.52 136.479 49.448 136.447 49.384C136.415 49.32 136.359 49.288 136.279 49.288C136.135 49.288 135.943 49.376 135.703 49.552C135.479 49.728 135.231 49.944 134.959 50.2C134.703 50.44 134.463 50.68 134.239 50.92C134.031 51.144 133.879 51.312 133.783 51.424C133.607 51.616 133.383 51.896 133.111 52.264C132.839 52.632 132.591 53.008 132.367 53.392C132.159 53.76 132.055 54.072 132.055 54.328C132.055 54.648 132.231 54.808 132.583 54.808ZM139.004 55.192C138.348 55.192 137.892 55.064 137.636 54.808C137.38 54.552 137.252 54.24 137.252 53.872C137.252 53.408 137.372 52.912 137.612 52.384C137.868 51.856 138.108 51.408 138.332 51.04C138.588 50.656 138.932 50.256 139.364 49.84C139.796 49.424 140.268 49.072 140.78 48.784C141.292 48.496 141.788 48.352 142.268 48.352C142.684 48.352 142.972 48.456 143.132 48.664C143.292 48.856 143.372 49.088 143.372 49.36C143.372 49.856 143.22 50.264 142.916 50.584C142.628 50.904 142.268 51.168 141.836 51.376C141.404 51.568 140.988 51.728 140.588 51.856C140.348 51.92 140.068 51.984 139.748 52.048C139.428 52.112 139.124 52.144 138.836 52.144C138.724 52.432 138.636 52.712 138.572 52.984C138.508 53.256 138.476 53.504 138.476 53.728C138.476 54 138.54 54.224 138.668 54.4C138.812 54.576 139.044 54.664 139.364 54.664C139.492 54.664 139.644 54.648 139.82 54.616C139.996 54.584 140.188 54.536 140.396 54.472C140.876 54.312 141.348 54.056 141.812 53.704C142.276 53.352 142.7 52.976 143.084 52.576C143.484 52.16 143.788 51.816 143.996 51.544C144.044 51.592 144.068 51.648 144.068 51.712C144.068 51.792 144.012 51.92 143.9 52.096C143.58 52.544 143.164 53.008 142.652 53.488C142.14 53.968 141.572 54.376 140.948 54.712C140.324 55.032 139.676 55.192 139.004 55.192ZM139.028 51.664C139.236 51.68 139.468 51.68 139.724 51.664C139.996 51.632 140.26 51.576 140.516 51.496C141.172 51.304 141.644 51 141.932 50.584C142.236 50.152 142.388 49.768 142.388 49.432C142.388 49.24 142.348 49.08 142.268 48.952C142.188 48.824 142.06 48.76 141.884 48.76C141.42 48.76 141.004 48.936 140.636 49.288C140.268 49.624 139.948 50.016 139.676 50.464C139.404 50.912 139.188 51.312 139.028 51.664ZM143.757 55.36C143.693 55.36 143.693 55.288 143.757 55.144C143.837 55 143.909 54.84 143.973 54.664C144.053 54.488 144.133 54.296 144.213 54.088C144.373 53.704 144.549 53.272 144.741 52.792C144.933 52.312 145.117 51.848 145.293 51.4C145.469 50.936 145.621 50.544 145.749 50.224C145.893 49.888 145.989 49.672 146.037 49.576C145.813 49.816 145.541 50.12 145.221 50.488C144.917 50.84 144.629 51.184 144.357 51.52C144.085 51.856 143.877 52.12 143.733 52.312C143.685 52.376 143.645 52.408 143.613 52.408C143.581 52.408 143.565 52.368 143.565 52.288C143.565 52.16 143.605 52.04 143.685 51.928C143.989 51.544 144.325 51.112 144.693 50.632C145.077 50.152 145.421 49.712 145.725 49.312C146.029 48.896 146.221 48.624 146.301 48.496C146.477 48.464 146.733 48.416 147.069 48.352C147.421 48.288 147.661 48.2 147.789 48.088C147.837 48.04 147.885 48.016 147.933 48.016C147.965 48.016 147.981 48.048 147.981 48.112C147.997 48.16 147.981 48.216 147.933 48.28C147.837 48.392 147.669 48.656 147.429 49.072C147.205 49.472 146.957 49.92 146.685 50.416C146.429 50.912 146.189 51.36 145.965 51.76C146.221 51.456 146.469 51.168 146.709 50.896C146.965 50.624 147.141 50.432 147.237 50.32C147.429 50.128 147.693 49.888 148.029 49.6C148.365 49.312 148.717 49.048 149.085 48.808C149.453 48.568 149.773 48.432 150.045 48.4C150.109 48.384 150.165 48.376 150.213 48.376C150.261 48.376 150.309 48.376 150.357 48.376C150.661 48.376 150.813 48.488 150.813 48.712C150.813 48.808 150.789 48.92 150.741 49.048C150.693 49.176 150.629 49.304 150.549 49.432C150.453 49.624 150.293 49.928 150.069 50.344C149.845 50.744 149.645 51.112 149.469 51.448L150.597 50.32C150.789 50.128 151.053 49.888 151.389 49.6C151.725 49.312 152.077 49.048 152.445 48.808C152.813 48.568 153.133 48.432 153.405 48.4C153.469 48.384 153.525 48.376 153.573 48.376C153.637 48.376 153.685 48.376 153.717 48.376C154.069 48.376 154.245 48.504 154.245 48.76C154.245 48.952 154.141 49.208 153.933 49.528C153.821 49.704 153.645 50 153.405 50.416C153.165 50.832 152.917 51.288 152.661 51.784C152.421 52.264 152.213 52.712 152.037 53.128C151.861 53.544 151.773 53.848 151.773 54.04C151.773 54.264 151.885 54.376 152.109 54.376C152.317 54.376 152.581 54.256 152.901 54.016C153.237 53.76 153.573 53.456 153.909 53.104C154.261 52.752 154.565 52.416 154.821 52.096C154.933 51.968 155.037 51.84 155.133 51.712C155.245 51.568 155.309 51.488 155.325 51.472C155.357 51.504 155.373 51.56 155.373 51.64C155.373 51.752 155.333 51.864 155.253 51.976C155.189 52.072 155.125 52.16 155.061 52.24C154.757 52.64 154.405 53.056 154.005 53.488C153.621 53.92 153.197 54.288 152.733 54.592C152.269 54.88 151.773 55.048 151.245 55.096C151.085 55.112 150.925 55.08 150.765 55C150.605 54.92 150.525 54.792 150.525 54.616C150.525 54.392 150.581 54.128 150.693 53.824C150.821 53.52 150.957 53.216 151.101 52.912C151.261 52.608 151.381 52.36 151.461 52.168C151.749 51.608 152.013 51.08 152.253 50.584C152.493 50.088 152.661 49.736 152.757 49.528C152.805 49.432 152.829 49.352 152.829 49.288C152.829 49.176 152.741 49.168 152.565 49.264C152.389 49.36 152.173 49.504 151.917 49.696C151.677 49.888 151.453 50.08 151.245 50.272C151.037 50.448 150.901 50.568 150.837 50.632C150.565 50.904 150.237 51.272 149.853 51.736C149.485 52.2 149.141 52.688 148.821 53.2C148.501 53.696 148.277 54.16 148.149 54.592C147.989 54.736 147.837 54.808 147.693 54.808C147.581 54.808 147.485 54.768 147.405 54.688C147.341 54.608 147.309 54.512 147.309 54.4C147.309 54.08 147.405 53.704 147.597 53.272C147.805 52.824 147.973 52.456 148.101 52.168C148.389 51.608 148.653 51.08 148.893 50.584C149.133 50.088 149.301 49.736 149.397 49.528C149.445 49.432 149.469 49.352 149.469 49.288C149.469 49.176 149.381 49.168 149.205 49.264C149.029 49.36 148.813 49.504 148.557 49.696C148.317 49.888 148.093 50.08 147.885 50.272C147.677 50.448 147.541 50.568 147.477 50.632C147.093 51.032 146.733 51.44 146.397 51.856C146.077 52.272 145.805 52.72 145.581 53.2C145.453 53.488 145.317 53.808 145.173 54.16C145.029 54.512 144.909 54.808 144.813 55.048C144.605 55.064 144.397 55.12 144.189 55.216C143.981 55.312 143.837 55.36 143.757 55.36ZM160.309 55.192C159.653 55.192 159.197 55.064 158.941 54.808C158.685 54.552 158.557 54.24 158.557 53.872C158.557 53.408 158.677 52.912 158.917 52.384C159.173 51.856 159.413 51.408 159.637 51.04C159.893 50.656 160.237 50.256 160.669 49.84C161.101 49.424 161.573 49.072 162.085 48.784C162.597 48.496 163.093 48.352 163.573 48.352C163.989 48.352 164.277 48.456 164.437 48.664C164.597 48.856 164.677 49.088 164.677 49.36C164.677 49.856 164.525 50.264 164.221 50.584C163.933 50.904 163.573 51.168 163.141 51.376C162.709 51.568 162.293 51.728 161.893 51.856C161.653 51.92 161.373 51.984 161.053 52.048C160.733 52.112 160.429 52.144 160.141 52.144C160.029 52.432 159.941 52.712 159.877 52.984C159.813 53.256 159.781 53.504 159.781 53.728C159.781 54 159.845 54.224 159.973 54.4C160.117 54.576 160.349 54.664 160.669 54.664C160.797 54.664 160.949 54.648 161.125 54.616C161.301 54.584 161.493 54.536 161.701 54.472C162.181 54.312 162.653 54.056 163.117 53.704C163.581 53.352 164.005 52.976 164.389 52.576C164.789 52.16 165.093 51.816 165.301 51.544C165.349 51.592 165.373 51.648 165.373 51.712C165.373 51.792 165.317 51.92 165.205 52.096C164.885 52.544 164.469 53.008 163.957 53.488C163.445 53.968 162.877 54.376 162.253 54.712C161.629 55.032 160.981 55.192 160.309 55.192ZM160.333 51.664C160.541 51.68 160.773 51.68 161.029 51.664C161.301 51.632 161.565 51.576 161.821 51.496C162.477 51.304 162.949 51 163.237 50.584C163.541 50.152 163.693 49.768 163.693 49.432C163.693 49.24 163.653 49.08 163.573 48.952C163.493 48.824 163.365 48.76 163.189 48.76C162.725 48.76 162.309 48.936 161.941 49.288C161.573 49.624 161.253 50.016 160.981 50.464C160.709 50.912 160.493 51.312 160.333 51.664ZM166.358 55.384C166.07 55.384 165.766 55.344 165.446 55.264C165.126 55.184 164.838 55.056 164.582 54.88C164.342 54.688 164.182 54.432 164.102 54.112C164.086 54.064 164.078 53.992 164.078 53.896C164.078 53.672 164.126 53.424 164.222 53.152C164.334 52.88 164.47 52.688 164.63 52.576C164.694 52.544 164.742 52.544 164.774 52.576C164.822 52.608 164.83 52.64 164.798 52.672C164.782 52.72 164.758 52.784 164.726 52.864C164.694 52.928 164.67 53 164.654 53.08C164.606 53.496 164.694 53.864 164.918 54.184C165.014 54.312 165.126 54.432 165.254 54.544C165.398 54.656 165.534 54.752 165.662 54.832C165.774 54.896 165.91 54.944 166.07 54.976C166.23 54.992 166.39 55 166.55 55C166.806 55 167.054 54.968 167.294 54.904C167.534 54.84 167.71 54.736 167.822 54.592C168.03 54.336 168.134 54.048 168.134 53.728C168.134 53.488 168.07 53.232 167.942 52.96C167.814 52.688 167.614 52.4 167.342 52.096C167.166 51.904 166.998 51.696 166.838 51.472C166.678 51.248 166.574 51.008 166.526 50.752C166.51 50.704 166.494 50.656 166.478 50.608C166.478 50.56 166.478 50.512 166.478 50.464C166.27 50.768 166.054 51.056 165.83 51.328C165.622 51.584 165.438 51.808 165.278 52C165.214 52.096 165.158 52.144 165.11 52.144C165.078 52.144 165.062 52.112 165.062 52.048C165.062 51.904 165.126 51.752 165.254 51.592C165.382 51.448 165.526 51.272 165.686 51.064C165.846 50.84 165.974 50.664 166.07 50.536C166.342 50.136 166.542 49.824 166.67 49.6C166.814 49.36 166.966 49.144 167.126 48.952C167.302 48.744 167.518 48.576 167.774 48.448C168.046 48.32 168.326 48.256 168.614 48.256C168.95 48.256 169.254 48.312 169.526 48.424C169.814 48.52 169.966 48.776 169.982 49.192C169.982 49.384 169.942 49.584 169.862 49.792C169.798 49.984 169.726 50.168 169.646 50.344C169.598 50.44 169.526 50.512 169.43 50.56C169.35 50.592 169.31 50.576 169.31 50.512C169.31 50.448 169.318 50.376 169.334 50.296C169.35 50.216 169.358 50.144 169.358 50.08C169.358 49.808 169.31 49.568 169.214 49.36C169.134 49.136 169.014 48.976 168.854 48.88C168.694 48.768 168.526 48.712 168.35 48.712C168.094 48.712 167.846 48.816 167.606 49.024C167.366 49.216 167.246 49.472 167.246 49.792C167.246 49.824 167.246 49.864 167.246 49.912C167.246 49.96 167.254 50 167.27 50.032C167.334 50.288 167.526 50.576 167.846 50.896C168.166 51.216 168.414 51.496 168.59 51.736C168.894 52.152 169.046 52.576 169.046 53.008C169.046 53.44 168.918 53.84 168.662 54.208C168.422 54.56 168.094 54.84 167.678 55.048C167.278 55.272 166.838 55.384 166.358 55.384ZM171.456 55.072C171.296 55.072 171.16 55.04 171.048 54.976C170.936 54.912 170.88 54.792 170.88 54.616C170.88 54.392 170.936 54.128 171.048 53.824C171.176 53.52 171.312 53.216 171.456 52.912C171.6 52.608 171.72 52.36 171.816 52.168C171.896 52.024 172 51.8 172.128 51.496C172.272 51.176 172.416 50.848 172.56 50.512C172.72 50.16 172.848 49.864 172.944 49.624C173.056 49.384 173.112 49.264 173.112 49.264C172.968 49.424 172.776 49.648 172.536 49.936C172.312 50.224 172.064 50.528 171.792 50.848C171.536 51.152 171.296 51.44 171.072 51.712C170.864 51.984 170.712 52.184 170.616 52.312C170.568 52.376 170.528 52.408 170.496 52.408C170.464 52.408 170.448 52.368 170.448 52.288C170.448 52.16 170.488 52.04 170.568 51.928C170.76 51.688 170.992 51.4 171.264 51.064C171.536 50.712 171.808 50.36 172.08 50.008C172.368 49.656 172.616 49.344 172.824 49.072C172.696 49.072 172.528 49.08 172.32 49.096C172.128 49.112 171.952 49.136 171.792 49.168C171.632 49.184 171.544 49.192 171.528 49.192C171.448 49.192 171.456 49.128 171.552 49C171.648 48.872 171.776 48.744 171.936 48.616C172.096 48.488 172.216 48.424 172.296 48.424C172.312 48.424 172.44 48.432 172.68 48.448C172.92 48.448 173.096 48.448 173.208 48.448C173.528 48.016 173.84 47.52 174.144 46.96C174.464 46.4 174.776 45.784 175.08 45.112C175.208 45.096 175.424 45.008 175.728 44.848C176.048 44.672 176.296 44.496 176.472 44.32C176.552 44.24 176.616 44.2 176.664 44.2C176.76 44.2 176.76 44.264 176.664 44.392C176.552 44.52 176.36 44.792 176.088 45.208C175.816 45.608 175.512 46.096 175.176 46.672C174.84 47.232 174.52 47.824 174.216 48.448H176.16C176.336 48.448 176.424 48.472 176.424 48.52C176.424 48.584 176.304 48.648 176.064 48.712C175.792 48.792 175.504 48.84 175.2 48.856C174.912 48.872 174.64 48.904 174.384 48.952C174.144 49 173.968 49.104 173.856 49.264C173.76 49.376 173.624 49.616 173.448 49.984C173.272 50.352 173.08 50.776 172.872 51.256C172.68 51.72 172.512 52.192 172.368 52.672C172.224 53.136 172.136 53.528 172.104 53.848V53.944C172.104 54.072 172.144 54.176 172.224 54.256C172.304 54.336 172.384 54.376 172.464 54.376C172.672 54.376 172.936 54.248 173.256 53.992C173.592 53.736 173.936 53.432 174.288 53.08C174.64 52.712 174.944 52.376 175.2 52.072C175.312 51.944 175.408 51.824 175.488 51.712C175.584 51.6 175.64 51.528 175.656 51.496C175.688 51.56 175.704 51.608 175.704 51.64C175.704 51.736 175.672 51.84 175.608 51.952C175.56 52.064 175.504 52.16 175.44 52.24C175.136 52.64 174.768 53.064 174.336 53.512C173.904 53.944 173.44 54.312 172.944 54.616C172.464 54.92 171.968 55.072 171.456 55.072ZM178.518 55.072C178.358 55.072 178.222 55.04 178.11 54.976C177.998 54.912 177.942 54.792 177.942 54.616C177.942 54.392 177.998 54.136 178.11 53.848C178.222 53.56 178.35 53.28 178.494 53.008C178.638 52.72 178.766 52.488 178.878 52.312C178.318 52.904 177.734 53.464 177.126 53.992C176.822 54.248 176.486 54.488 176.118 54.712C175.75 54.936 175.358 55.048 174.942 55.048C174.782 55.048 174.67 55 174.606 54.904C174.542 54.792 174.51 54.664 174.51 54.52C174.51 54.44 174.518 54.384 174.534 54.352C174.614 53.728 174.814 53.08 175.134 52.408C175.454 51.736 175.846 51.104 176.31 50.512C176.774 49.92 177.246 49.44 177.726 49.072C178.27 48.656 178.87 48.448 179.526 48.448H182.286C182.366 48.448 182.406 48.48 182.406 48.544C182.406 48.672 182.334 48.736 182.19 48.736C182.03 48.736 181.87 48.84 181.71 49.048C181.55 49.24 181.43 49.4 181.35 49.528C181.238 49.704 181.062 50 180.822 50.416C180.582 50.832 180.334 51.288 180.078 51.784C179.838 52.264 179.63 52.712 179.454 53.128C179.278 53.544 179.19 53.848 179.19 54.04C179.19 54.264 179.302 54.376 179.526 54.376C179.766 54.376 180.038 54.264 180.342 54.04C180.646 53.816 180.95 53.544 181.254 53.224C181.574 52.888 181.862 52.56 182.118 52.24C182.39 51.904 182.606 51.64 182.766 51.448C182.862 51.544 182.854 51.68 182.742 51.856C182.646 52.016 182.558 52.144 182.478 52.24C182.158 52.656 181.79 53.088 181.374 53.536C180.958 53.968 180.502 54.336 180.006 54.64C179.526 54.928 179.03 55.072 178.518 55.072ZM175.926 54.232C176.118 54.232 176.382 54.096 176.718 53.824C177.07 53.536 177.446 53.184 177.846 52.768C178.246 52.336 178.622 51.888 178.974 51.424C179.326 50.944 179.614 50.512 179.838 50.128C180.078 49.728 180.198 49.424 180.198 49.216C180.198 49.04 180.142 48.92 180.03 48.856C179.934 48.792 179.806 48.76 179.646 48.76C179.39 48.76 179.11 48.856 178.806 49.048C178.518 49.224 178.286 49.4 178.11 49.576C177.918 49.752 177.686 50.032 177.414 50.416C177.158 50.784 176.902 51.192 176.646 51.64C176.39 52.088 176.174 52.52 175.998 52.936C175.822 53.352 175.734 53.688 175.734 53.944C175.734 54.136 175.798 54.232 175.926 54.232ZM182.452 55.336C182.388 55.336 182.388 55.272 182.452 55.144C182.532 55 182.604 54.84 182.668 54.664C182.748 54.488 182.828 54.296 182.908 54.088C183.068 53.704 183.244 53.272 183.436 52.792C183.628 52.312 183.812 51.848 183.988 51.4C184.164 50.936 184.316 50.544 184.444 50.224C184.588 49.888 184.684 49.672 184.732 49.576C184.508 49.816 184.236 50.12 183.916 50.488C183.612 50.84 183.324 51.184 183.052 51.52C182.78 51.856 182.572 52.12 182.428 52.312C182.38 52.376 182.34 52.408 182.308 52.408C182.276 52.408 182.26 52.368 182.26 52.288C182.26 52.16 182.3 52.04 182.38 51.928C182.684 51.544 183.02 51.112 183.388 50.632C183.772 50.152 184.116 49.712 184.42 49.312C184.724 48.896 184.916 48.624 184.996 48.496C185.172 48.464 185.428 48.416 185.764 48.352C186.116 48.288 186.356 48.2 186.484 48.088C186.532 48.04 186.58 48.016 186.628 48.016C186.66 48.016 186.676 48.048 186.676 48.112C186.692 48.16 186.676 48.216 186.628 48.28C186.532 48.376 186.388 48.584 186.196 48.904C186.02 49.224 185.82 49.592 185.596 50.008C185.372 50.424 185.156 50.824 184.948 51.208C185.108 50.968 185.316 50.688 185.572 50.368C185.844 50.032 186.14 49.712 186.46 49.408C186.78 49.088 187.1 48.824 187.42 48.616C187.756 48.408 188.068 48.304 188.356 48.304C188.564 48.304 188.74 48.352 188.884 48.448C189.028 48.528 189.14 48.68 189.22 48.904C189.268 49.016 189.292 49.144 189.292 49.288C189.292 49.56 189.22 49.824 189.076 50.08C188.948 50.32 188.852 50.504 188.788 50.632C188.772 50.68 188.716 50.728 188.62 50.776C188.524 50.808 188.484 50.792 188.5 50.728C188.516 50.648 188.524 50.568 188.524 50.488C188.54 50.408 188.548 50.32 188.548 50.224C188.548 49.952 188.492 49.704 188.38 49.48C188.284 49.256 188.1 49.144 187.828 49.144C187.572 49.144 187.26 49.304 186.892 49.624C186.524 49.944 186.156 50.312 185.788 50.728C185.324 51.272 184.956 51.792 184.684 52.288C184.412 52.768 184.188 53.24 184.012 53.704C183.916 53.96 183.82 54.216 183.724 54.472C183.628 54.712 183.556 54.904 183.508 55.048C183.3 55.064 183.092 55.112 182.884 55.192C182.676 55.288 182.532 55.336 182.452 55.336Z" fill="#FF65C5"/>
</svg>
